<?xml version="1.0" encoding="utf-8"?>
<!-- Generator: Adobe Illustrator 25.0.0, SVG Export Plug-In . SVG Version: 6.00 Build 0)  -->
<svg version="1.1" id="图层_1" xmlns="http://www.w3.org/2000/svg" xmlns:xlink="http://www.w3.org/1999/xlink" x="0px" y="0px"
	 viewBox="0 0 265 80" style="enable-background:new 0 0 265 80;" xml:space="preserve">
<style type="text/css">
	.st0{fill:#FFFFFF;}
	.st1{fill-rule:evenodd;clip-rule:evenodd;fill:#FFFFFF;}
</style>
<path class="st0" d="M8.123,54.866l-1.354-3.27l0.223-0.093c0.13,0.398,0.333,0.531,0.609,0.4l2.714-1.125
	c0.273-0.095,0.323-0.332,0.149-0.712l0.222-0.093l0.856,2.07l-0.222,0.092c-0.151-0.406-0.353-0.54-0.608-0.399L8.017,52.85
	c-0.279,0.082-0.346,0.257-0.2,0.526c0.264,0.552,0.841,0.773,1.735,0.663l0.101,0.246L8.123,54.866L8.123,54.866z"/>
<path class="st0" d="M11.293,57.029l0.838-1.14l-1.39,0.207L11.293,57.029L11.293,57.029z M9.382,57.207l-0.859-1.451l0.208-0.123
	c0.199,0.273,0.558,0.36,1.077,0.258l3.521-0.486l0.159,0.269l-2.343,3.235c-0.194,0.208-0.214,0.444-0.058,0.706l-0.208,0.122
	L9.751,57.83l0.207-0.123l0.123,0.207c0.117,0.23,0.241,0.296,0.371,0.201c0.028-0.017,0.068-0.059,0.121-0.127
	c0.028-0.017,0.048-0.029,0.062-0.037l0.442-0.625l-0.687-1.162l-0.513,0.08c-0.102-0.014-0.229,0.024-0.381,0.113
	c-0.166,0.098-0.188,0.251-0.065,0.459l0.159,0.269L9.382,57.207L9.382,57.207z"/>
<path class="st0" d="M14.424,57.829l0.187-0.153l0.947,1.157l-0.925,3.437l0.015,0.019l1.68-1.374
	c0.231-0.148,0.218-0.418-0.04-0.81l0.187-0.152l0.977,1.194l-0.187,0.152c-0.292-0.28-0.533-0.321-0.724-0.124l-2.724,2.231
	l-0.366-0.448l1.041-3.906l-0.016-0.019l-2.034,1.665c-0.267,0.156-0.219,0.429,0.141,0.819l-0.186,0.152l-1.054-1.287l0.186-0.153
	c0.24,0.343,0.473,0.412,0.699,0.207l2.276-1.863C14.737,58.403,14.711,58.155,14.424,57.829L14.424,57.829z"/>
<path class="st0" d="M18.409,65.563l-1.129,1.188l-2.426-2.239l0.213-0.23l4.096-1.169l-0.301-0.278
	c-0.67-0.576-1.28-0.602-1.827-0.08l-0.195-0.18l1.032-1.047l2.283,2.108l-0.294,0.318L15.9,65.084
	c0.807,0.831,1.577,0.931,2.314,0.299L18.409,65.563L18.409,65.563z"/>
<path class="st0" d="M20.822,66.487l1.131,0.78l0.697-1.012c0.177-0.228,0.109-0.441-0.204-0.638l0.137-0.198l1.786,1.231
	l-0.137,0.199c-0.348-0.259-0.591-0.261-0.728-0.005l-1.669,2.421c-0.2,0.233-0.112,0.46,0.264,0.679l-0.137,0.199l-1.786-1.231
	l0.136-0.199c0.286,0.236,0.509,0.224,0.669-0.036l0.821-1.19l-1.131-0.78l-0.82,1.191c-0.2,0.233-0.132,0.446,0.204,0.638
	l-0.137,0.198l-1.766-1.216l0.137-0.199c0.312,0.254,0.549,0.251,0.709-0.009l1.668-2.421c0.177-0.229,0.096-0.451-0.244-0.666
	l0.136-0.198l1.766,1.218l-0.136,0.198c-0.309-0.232-0.531-0.22-0.669,0.036L20.822,66.487L20.822,66.487z"/>
<path class="st0" d="M24.856,69.256c-0.568,1.153-0.537,1.87,0.092,2.153c0.587,0.299,1.157-0.131,1.712-1.291
	c0.546-1.144,0.523-1.858-0.071-2.143C25.966,67.678,25.389,68.104,24.856,69.256L24.856,69.256z M23.813,68.757
	c0.684-1.132,1.65-1.48,2.901-1.042c1.097,0.684,1.426,1.652,0.989,2.902c-0.699,1.124-1.652,1.461-2.859,1.009
	C23.705,70.957,23.361,70,23.813,68.757L23.813,68.757z"/>
<path class="st0" d="M28.97,68.84l2.076,0.627l-0.07,0.231c-0.425-0.146-0.666-0.076-0.718,0.211l-0.732,2.422
	c-0.133,0.497,0.063,0.849,0.587,1.058c0.661,0.2,1.102-0.037,1.321-0.708l0.648-2.145c0.109-0.253-0.059-0.472-0.507-0.656
	l0.07-0.231l1.499,0.452l-0.069,0.231c-0.419-0.06-0.65,0.038-0.693,0.294l-0.634,2.1c-0.26,0.861-0.905,1.136-1.936,0.826
	c-0.995-0.318-1.389-0.847-1.181-1.591l0.704-2.33c0.099-0.273-0.046-0.458-0.435-0.559L28.97,68.84L28.97,68.84z"/>
<path class="st0" d="M37.709,70.777l2.166,0.009l-0.001,0.24c-0.449-0.018-0.658,0.119-0.627,0.407l-0.009,2.528
	c0.014,0.514,0.302,0.796,0.864,0.846c0.69,0.003,1.044-0.349,1.063-1.056l0.009-2.238c0.033-0.273-0.191-0.435-0.672-0.484
	l0.001-0.241l1.565,0.006l-0.001,0.24c-0.418,0.063-0.611,0.223-0.58,0.479l-0.009,2.191c-0.004,0.899-0.543,1.346-1.618,1.342
	c-1.043-0.02-1.572-0.415-1.584-1.185l0.009-2.432c0.017-0.289-0.175-0.427-0.577-0.412L37.709,70.777L37.709,70.777z"/>
<path class="st0" d="M42.339,71.018l-0.034-0.238l1.477-0.216l2.467,2.562l0.024-0.003l-0.313-2.145
	c-0.008-0.275-0.246-0.402-0.713-0.383l-0.036-0.238l1.526-0.223l0.036,0.238c-0.391,0.105-0.55,0.291-0.479,0.556l0.507,3.481
	l-0.572,0.083l-2.809-2.901l-0.024,0.003l0.379,2.599c-0.004,0.308,0.255,0.409,0.774,0.301l0.035,0.238l-1.645,0.24l-0.034-0.239
	c0.417-0.029,0.596-0.192,0.536-0.492l-0.424-2.908C42.992,71.045,42.766,70.94,42.339,71.018L42.339,71.018z"/>
<path class="st0" d="M50.483,73.457l-2.158,0.596l-0.064-0.232c0.411-0.081,0.568-0.265,0.471-0.555l-0.781-2.831
	c-0.062-0.283-0.292-0.361-0.69-0.234l-0.064-0.232l2.159-0.596l0.064,0.232c-0.422,0.1-0.579,0.284-0.471,0.554l0.782,2.832
	c0.051,0.303,0.28,0.381,0.689,0.234L50.483,73.457L50.483,73.457z"/>
<path class="st0" d="M49.873,69.497l-0.091-0.223l1.9-0.768l0.09,0.224c-0.372,0.151-0.513,0.294-0.424,0.431
	c-0.078-0.02,0.49,0.677,1.703,2.093l0.022-0.009c-0.001-0.086-0.004-0.223-0.01-0.412c-0.047-1.661-0.086-2.4-0.115-2.215
	c-0.084-0.208-0.283-0.249-0.596-0.123l-0.09-0.224l1.296-0.523l0.09,0.223c-0.265,0.159-0.385,0.355-0.36,0.587l0.116,3.827
	l-0.469,0.19l-2.408-2.874C50.332,69.433,50.114,69.365,49.873,69.497L49.873,69.497z"/>
<path class="st0" d="M56.946,65.801l0.8,1.291l-0.229,0.132c-0.597-0.583-1.219-0.697-1.867-0.342
	c-0.328,0.171-0.41,0.366-0.246,0.587l0.602,1.044c0.483-0.224,0.641-0.593,0.473-1.108l0.209-0.12l0.855,1.481l-0.209,0.12
	c-0.354-0.389-0.753-0.437-1.196-0.144l0.711,1.231c0.117,0.267,0.326,0.293,0.631,0.082c0.673-0.408,0.898-1.048,0.673-1.919
	l0.23-0.132l0.765,1.422l-3.381,1.951l-0.12-0.208c0.377-0.181,0.483-0.4,0.317-0.656l-1.47-2.546
	c-0.131-0.259-0.373-0.277-0.727-0.054l-0.12-0.209L56.946,65.801L56.946,65.801z"/>
<path class="st0" d="M59.229,64.924l0.823,1.04c0.612-0.443,0.721-0.888,0.327-1.335c-0.355-0.395-0.705-0.477-1.053-0.243
	C59.099,64.565,59.067,64.745,59.229,64.924L59.229,64.924z M62.69,65.567l0.19-0.149c0.399,0.504,0.365,0.94-0.101,1.31
	c-0.469,0.392-0.918,0.317-1.347-0.226c-0.295-0.32-0.503-0.493-0.626-0.519c-0.143-0.051-0.344,0.006-0.603,0.17l0.793,1.003
	c0.192,0.319,0.453,0.328,0.787,0.023l0.149,0.189l-1.72,1.362l-0.15-0.19c0.348-0.234,0.42-0.466,0.218-0.695l-1.825-2.307
	c-0.166-0.238-0.409-0.219-0.727,0.053l-0.149-0.189l1.701-1.346c0.817-0.626,1.461-0.654,1.932-0.085
	c0.407,0.539,0.226,1.114-0.544,1.722l0.015,0.018c0.481-0.299,0.954-0.284,1.419,0.045c0.452,0.339,0.687,0.44,0.702,0.305
	C62.902,66.004,62.864,65.839,62.69,65.567L62.69,65.567z"/>
<path class="st0" d="M64.282,65.368l-1.181-1.134l0.184-0.191c0.849,0.482,1.502,0.486,1.958,0.011
	c0.355-0.371,0.371-0.723,0.047-1.057c-0.185-0.178-0.599-0.107-1.239,0.213c-0.854,0.449-1.471,0.49-1.854,0.123
	c-0.603-0.623-0.605-1.293-0.007-2.01c0.2-0.208,0.453-0.355,0.757-0.441c0.101-0.036,0.169-0.072,0.202-0.106
	c0.056-0.036,0.054-0.149-0.007-0.341l0.167-0.174l1.06,1.017l-0.167,0.174c-0.746-0.382-1.325-0.382-1.737,0.002
	c-0.299,0.358-0.321,0.67-0.066,0.938c0.209,0.2,0.611,0.141,1.206-0.178c0.887-0.484,1.545-0.52,1.973-0.109
	c0.558,0.625,0.538,1.295-0.061,2.011c-0.245,0.255-0.524,0.465-0.839,0.63c-0.124,0.036-0.197,0.066-0.219,0.089
	c-0.056,0.058-0.059,0.178-0.01,0.359L64.282,65.368L64.282,65.368z"/>
<path class="st0" d="M68.685,60.275l-1.362,1.782l-0.192-0.146c0.279-0.312,0.292-0.555,0.04-0.727l-2.338-1.785
	c-0.219-0.189-0.451-0.112-0.692,0.23l-0.191-0.147l1.361-1.782l0.192,0.147c-0.276,0.335-0.29,0.578-0.04,0.728L67.8,60.36
	c0.224,0.21,0.454,0.133,0.692-0.231L68.685,60.275L68.685,60.275z"/>
<path class="st0" d="M65.68,57.257l2.021-3.42l1.298,0.738l-0.147,0.249c-0.789-0.242-1.339-0.101-1.649,0.424l2.84,1.678
	c0.238,0.197,0.47,0.073,0.696-0.372l0.207,0.123L69.72,58.75l-0.207-0.123c0.28-0.413,0.282-0.682,0.002-0.81l-2.84-1.678
	c-0.319,0.539-0.177,1.089,0.424,1.649l-0.147,0.249L65.68,57.257L65.68,57.257z"/>
<path class="st0" d="M68.044,53.683l-0.222-0.094l0.793-1.887l0.222,0.093c-0.131,0.311-0.134,0.484-0.009,0.518
	c0.044,0.019,0.135,0.031,0.272,0.036c0.036-0.002,0.064-0.007,0.085-0.017l1.385-0.123l-0.842-0.981
	c-0.108-0.115-0.199-0.189-0.273-0.219c-0.155-0.047-0.304,0.081-0.45,0.385l-0.222-0.093l0.607-1.444l0.222,0.094
	c-0.105,0.374-0.059,0.638,0.139,0.789l1.319,1.521l1.021,0.429c0.263,0.162,0.475,0.009,0.638-0.463l0.223,0.093l-0.915,2.176
	l-0.222-0.093c0.223-0.446,0.187-0.714-0.107-0.803l-1.043-0.438L68.935,53.3C68.41,53.305,68.113,53.433,68.044,53.683
	L68.044,53.683z"/>
<path class="st1" d="M7.377,41.182c0.645,0,1.218-0.501,1.218-1.146s-0.573-1.217-1.218-1.217c-0.644,0-1.217,0.573-1.217,1.217
	S6.732,41.182,7.377,41.182L7.377,41.182z"/>
<path class="st1" d="M72.551,41.182c0.645,0,1.146-0.501,1.146-1.146s-0.502-1.217-1.146-1.217c-0.645,0-1.217,0.573-1.217,1.217
	S71.907,41.182,72.551,41.182L72.551,41.182z"/>
<path class="st1" d="M40,0c22.088,0,40,17.912,40,40c0,22.088-17.912,40-40,40C17.912,80,0,62.088,0,40C0,17.912,17.912,0,40,0L40,0
	z M40,1.085c21.489,0,38.915,17.426,38.915,38.915c0,21.488-17.426,38.915-38.915,38.915S1.085,61.488,1.085,40
	C1.085,18.511,18.511,1.085,40,1.085L40,1.085z"/>
<path class="st1" d="M40,12.761c15.041,0,27.239,12.198,27.239,27.24c0,15.041-12.198,27.239-27.239,27.239
	c-15.041,0-27.239-12.198-27.239-27.239C12.761,24.959,24.959,12.761,40,12.761L40,12.761z M40,13.5c14.633,0,26.5,11.867,26.5,26.5
	c0,14.633-11.867,26.5-26.5,26.5c-14.633,0-26.5-11.867-26.5-26.5C13.5,25.367,25.367,13.5,40,13.5L40,13.5z"/>
<path class="st1" d="M62.853,37.828h-2.145v2.196h2.145V37.828L62.853,37.828z M39.872,20.799l0.128,0l0.128,0
	c0,0.827,0,1.15,0,2.193l0.143,0.442v1.474l0.456,0.545v2.462h0.619v4.616h0.683v-0.579h0.727v2.689h9.936v-1.548h0.557v0.463h1.812
	l0-0.485h0.556v1.57h7.823V45.12H16.559V34.642h7.824v-1.57h0.555l0.001,0.485h1.811v-0.463h0.557v1.548h9.936v-2.689h0.727v0.579
	h0.683v-4.616h0.619v-2.462l0.456-0.545v-1.474l0.143-0.442C39.872,21.949,39.872,21.627,39.872,20.799L39.872,20.799z
	 M62.853,40.221h-2.854v1.787h2.854V40.221L62.853,40.221z M62.853,42.206h-3.317v1.438h1.127v-1.079h0.59v1.079h0.473V44.5h1.127
	V42.206L62.853,42.206z M55.116,37.828h2.463v2.196h-2.463V37.828L55.116,37.828z M55.116,40.221h3.276v1.787h-3.276V40.221
	L55.116,40.221z M55.116,42.206h3.808v1.438H57.63v-1.079h-0.677v1.079h-0.362V44.5h-1.476V42.206L55.116,42.206z M55.116,35.766
	h2.463v1.898h-2.463V35.766L55.116,35.766z M60.162,35.786h-2.058v4.055h0.644v1.715h0.901v-1.715h0.513V35.786L60.162,35.786z
	 M55.081,34.067h-1.83v0.589h1.83V34.067L55.081,34.067z M54.567,35.466h-1.464V44.5h1.464V35.466L54.567,35.466z M42.51,37.498
	h-0.683v1.067h0.683V37.498L42.51,37.498z M52.533,37.498h-0.608v1.29h-0.76v-1.29h-0.683v1.29c-0.253,0-0.506,0-0.76,0v-1.29H49.04
	v1.29c-0.253,0-0.507,0-0.76,0v-1.29h-0.683v1.29c-0.253,0-0.507,0-0.76,0v-1.29h-0.683v1.29c-0.253,0-0.507,0-0.76,0v-1.29h-0.683
	v1.29c-0.254,0-0.507,0-0.76,0v-1.29H43.27v1.067h0.207v0.564h9.057V37.498L52.533,37.498z M51.387,39.365h-1.104v1.974h1.104
	V39.365L51.387,39.365z M50.103,39.365H49v1.974h1.103V39.365L50.103,39.365z M48.82,39.365h-1.132v1.974h1.132V39.365L48.82,39.365
	z M52.536,39.365h-0.953v1.974h0.953V39.365L52.536,39.365z M52.536,41.52h-8.319v2.969h3.092v-2.496h0.581v2.496h0.715v-2.496h0.58
	v2.496h0.715v-2.496h0.581v2.496h0.715v-2.496h0.581v2.496h0.759V41.52L52.536,41.52z M62.853,35.766h-2.145v1.898h2.145V35.766
	L62.853,35.766z M40.369,38.565v-1.067h0.698v1.067H40.369L40.369,38.565z M17.147,37.828h2.145v2.196h-2.145V37.828L17.147,37.828z
	 M17.147,40.221h2.854v1.787h-2.854V40.221L17.147,40.221z M17.147,42.206h3.317v1.438h-1.127v-1.079h-0.589v1.079h-0.473V44.5
	h-1.127V42.206L17.147,42.206z M24.884,37.828h-2.463v2.196h2.463V37.828L24.884,37.828z M24.884,40.221h-3.277v1.787h3.277V40.221
	L24.884,40.221z M24.884,42.206h-3.808v1.438h1.294v-1.079h0.677v1.079h0.362V44.5h1.476V42.206L24.884,42.206z M24.884,35.766
	h-2.463v1.898h2.463V35.766L24.884,35.766z M19.838,35.786h2.059v4.055h-0.644v1.715h-0.901v-1.715h-0.514V35.786L19.838,35.786z
	 M24.919,34.067h1.83v0.589h-1.83V34.067L24.919,34.067z M25.433,35.466h1.464V44.5h-1.464V35.466L25.433,35.466z M37.49,37.498
	h0.682v1.067H37.49V37.498L37.49,37.498z M27.467,37.498h0.608v1.29h0.76v-1.29h0.683v1.29c0.253,0,0.507,0,0.76,0v-1.29h0.683v1.29
	c0.254,0,0.507,0,0.76,0v-1.29h0.683v1.29c0.254,0,0.507,0,0.76,0v-1.29h0.683v1.29c0.253,0,0.506,0,0.76,0v-1.29h0.683v1.29
	c0.253,0,0.507,0,0.76,0v-1.29h0.683v1.067h-0.207v0.564h-9.057V37.498L27.467,37.498z M28.613,39.365h1.104v1.974h-1.104V39.365
	L28.613,39.365z M29.897,39.365H31v1.974h-1.104V39.365L29.897,39.365z M31.18,39.365h1.132v1.974H31.18V39.365L31.18,39.365z
	 M27.464,39.365h0.953v1.974h-0.953V39.365L27.464,39.365z M27.464,41.52h8.319v2.969h-3.092v-2.496H32.11v2.496h-0.715v-2.496
	h-0.581v2.496h-0.715v-2.496h-0.58v2.496h-0.715v-2.496h-0.581v2.496h-0.759V41.52L27.464,41.52z M17.147,35.766h2.145v1.898h-2.145
	V35.766L17.147,35.766z M39.631,38.565v-1.067h-0.698v1.067H39.631L39.631,38.565z M40.427,27.939v-2.1L40,25.558l-0.428,0.281v2.1
	H40.427L40.427,27.939z M40.815,32.541v-3.96h-1.631v3.96H40.815L40.815,32.541z M42.055,34.642v-1.407h-4.11v1.407H42.055
	L42.055,34.642z M40,35.585c0.203,0,0.369,0.171,0.369,0.38v0.113h0.703v-0.113c0-0.208,0.166-0.38,0.369-0.38l0,0
	c0.203,0,0.369,0.171,0.369,0.38v0.113h0.704v-0.113c0-0.208,0.166-0.38,0.369-0.38l0,0c0.203,0,0.369,0.171,0.369,0.38v0.113h0.704
	v-0.113c0-0.208,0.166-0.38,0.369-0.38l0,0c0.203,0,0.369,0.171,0.369,0.38v0.113h0.704v-0.113c0-0.208,0.166-0.38,0.369-0.38l0,0
	c0.203,0,0.369,0.171,0.369,0.38v0.113h0.704v-0.113c0-0.208,0.166-0.38,0.369-0.38l0,0c0.203,0,0.369,0.171,0.369,0.38v0.113h0.703
	v-0.113c0-0.208,0.166-0.38,0.369-0.38l0,0c0.203,0,0.369,0.171,0.369,0.38v0.113h0.704v-0.113c0-0.208,0.166-0.38,0.369-0.38l0,0
	c0.203,0,0.369,0.171,0.369,0.38v0.113h0.703v-0.113c0-0.208,0.166-0.38,0.369-0.38l0,0c0.203,0,0.369,0.171,0.369,0.38v0.113h0.634
	v-0.886H27.467v0.886H28.1v-0.113c0-0.209,0.166-0.38,0.369-0.38l0,0c0.203,0,0.369,0.171,0.369,0.38v0.113h0.704v-0.113
	c0-0.209,0.166-0.38,0.369-0.38l0,0c0.203,0,0.369,0.171,0.369,0.38v0.113h0.704v-0.113c0-0.209,0.166-0.38,0.369-0.38l0,0
	c0.203,0,0.369,0.171,0.369,0.38v0.113h0.703v-0.113c0-0.209,0.166-0.38,0.369-0.38l0,0c0.203,0,0.369,0.171,0.369,0.38v0.113h0.704
	v-0.113c0-0.209,0.166-0.38,0.369-0.38l0,0c0.203,0,0.369,0.171,0.369,0.38v0.113h0.703v-0.113c0-0.209,0.166-0.38,0.369-0.38l0,0
	c0.203,0,0.369,0.171,0.369,0.38v0.113h0.704v-0.113c0-0.209,0.166-0.38,0.369-0.38l0,0c0.203,0,0.369,0.171,0.369,0.38v0.113h0.704
	v-0.113c0-0.209,0.166-0.38,0.369-0.38l0,0c0.203,0,0.369,0.171,0.369,0.38v0.113h0.704v-0.113
	C39.631,35.756,39.797,35.585,40,35.585L40,35.585z M52.533,37.309v-1.058H51.9v0.751h-0.738v-0.751h-0.703v0.751
	c-0.246,0-0.492,0-0.738,0v-0.751h-0.704v0.751c-0.246,0-0.492,0-0.738,0v-0.751h-0.703v0.751c-0.246,0-0.492,0-0.738,0v-0.751
	h-0.704v0.751c-0.246,0-0.492,0-0.738,0v-0.751h-0.704v0.751c-0.246,0-0.492,0-0.738,0v-0.751h-0.704v0.751
	c-0.246,0-0.492,0-0.738,0v-0.751H41.81v0.751c-0.246,0-0.492,0-0.738,0v-0.751h-0.703v0.751h-0.738v-0.751h-0.704v0.751
	c-0.246,0-0.492,0-0.738,0v-0.751h-0.704v0.751c-0.246,0-0.492,0-0.738,0v-0.751h-0.704v0.751c-0.246,0-0.492,0-0.738,0v-0.751
	h-0.703v0.751c-0.246,0-0.492,0-0.738,0v-0.751h-0.704v0.751c-0.246,0-0.492,0-0.738,0v-0.751h-0.703v0.751
	c-0.246,0-0.492,0-0.738,0v-0.751h-0.704v0.751c-0.246,0-0.492,0-0.738,0v-0.751h-0.704v0.751H28.1v-0.751h-0.634v1.058H52.533
	L52.533,37.309z M42.453,39.223l1.766,1.268v0.848h3.274v-1.974h-4.228v-0.591h-6.531v0.591h-4.228v1.974h3.274v-0.848l1.766-1.268
	H42.453L42.453,39.223z M40.774,40.297c0.677,0,1.231,0.588,1.231,1.305v2.887h0.631v-3.986l-0.509-0.526h-4.257l-0.509,0.526v3.986
	h0.631v-2.887c0-0.718,0.554-1.305,1.231-1.305H40.774L40.774,40.297z M41.095,41.628v2.861h0.422v-3.083
	c0-0.41-0.326-0.746-0.725-0.746h-1.584c-0.399,0-0.725,0.336-0.725,0.746v3.083h0.422v-2.861H41.095L41.095,41.628z M40.696,44.489
	v-2.067c0-0.073-0.112-0.132-0.249-0.132h-0.894c-0.137,0-0.249,0.06-0.249,0.132v2.067H40.696L40.696,44.489z M36.751,46.452h6.499
	v0.574h-6.499V46.452L36.751,46.452z M35.686,47.313h8.628v0.575h-8.628V47.313L35.686,47.313z M37.923,45.595h4.154v0.575h-4.154
	V45.595L37.923,45.595z"/>
<path class="st0" d="M32.751,55.131v-0.886c0.409-0.165,0.801-0.382,1.178-0.651h0.95v4.456H33.86v-3.49
	C33.515,54.792,33.146,54.983,32.751,55.131L32.751,55.131z M36.202,56.955h1.03c0.059,0.356,0.226,0.539,0.499,0.547
	c0.537-0.002,0.772-0.476,0.705-1.424c-0.128,0.105-0.261,0.177-0.398,0.217c-0.132,0.042-0.304,0.062-0.516,0.06
	c-0.845-0.079-1.312-0.525-1.402-1.339c0.066-0.944,0.624-1.45,1.674-1.519c1.13-0.002,1.695,0.659,1.694,1.983
	c0.065,1.803-0.516,2.69-1.744,2.661C36.73,58.152,36.216,57.757,36.202,56.955L36.202,56.955z M37.169,54.952
	c0.009,0.501,0.228,0.754,0.658,0.761c0.393-0.009,0.595-0.262,0.609-0.761c-0.021-0.526-0.223-0.797-0.609-0.811
	C37.404,54.154,37.184,54.424,37.169,54.952L37.169,54.952z M42.35,55.827c0.005-1.106-0.197-1.667-0.605-1.686
	c-0.408,0.019-0.609,0.58-0.602,1.686c-0.007,1.1,0.194,1.66,0.602,1.675C42.152,57.487,42.355,56.927,42.35,55.827L42.35,55.827z
	 M43.399,55.827c-0.029,1.522-0.587,2.293-1.674,2.314c-1.058-0.024-1.602-0.795-1.63-2.314c0.03-1.528,0.575-2.305,1.63-2.33
	C42.81,53.519,43.369,54.296,43.399,55.827L43.399,55.827z M43.959,56.955h1.03c0.059,0.356,0.226,0.539,0.499,0.547
	c0.537-0.002,0.772-0.476,0.704-1.424c-0.128,0.105-0.261,0.177-0.398,0.217c-0.132,0.042-0.303,0.062-0.516,0.06
	c-0.845-0.079-1.312-0.525-1.402-1.339c0.067-0.944,0.624-1.45,1.675-1.519c1.13-0.002,1.695,0.659,1.694,1.983
	c0.066,1.803-0.516,2.69-1.743,2.661C44.486,58.152,43.972,57.757,43.959,56.955L43.959,56.955z M44.925,54.952
	c0.009,0.501,0.228,0.754,0.658,0.761c0.393-0.009,0.595-0.262,0.608-0.761c-0.02-0.526-0.223-0.797-0.608-0.811
	C45.16,54.154,44.941,54.424,44.925,54.952L44.925,54.952z"/>
<path class="st1" d="M25.67,9.884c-0.022-0.043,0.112-0.072,0.2-0.112c0.034-0.016,0.11-0.05,0.13-0.051
	c0.071-0.005,0.094-0.008,0.249,0.044c0.155,0.052,0.26,0.094,0.337,0.052c0.077-0.041,0.156-0.08,0.17-0.11
	c0.015-0.029,0.019-0.104,0.035-0.179c0.016-0.076,0.054-0.143,0.049-0.237c-0.005-0.094-0.017-0.173-0.004-0.219
	c0.013-0.046,0.099-0.277,0.153-0.319c0.054-0.042,0.343-0.2,0.707-0.246c0,0,0.124,0.022,0.154,0.11
	c0.03,0.088,0.132,0.341,0.154,0.376c0.022,0.035,0.042,0.066,0.127,0.077c0.085,0.011,0.184,0.005,0.247-0.139
	c0.063-0.143,0.163-0.343,0.202-0.452c0.04-0.109,0.068-0.242,0.082-0.333c0.014-0.091,0.002-0.25,0.05-0.33
	c0.048-0.079,0.105-0.162,0.269-0.2c0.164-0.037,0.268-0.058,0.342-0.07c0.074-0.012,0.163,0.009,0.163,0.009
	s0.075,0.039,0.105,0.127c0.03,0.088,0.053,0.185,0.075,0.209c0.022,0.023,0.225,0.189,0.418,0.082c0,0,0.084-0.039,0.105-0.067
	c0.021-0.027,0.067-0.111,0.101-0.28c0.034-0.169,0.034-0.277,0.063-0.398c0.028-0.121,0.058-0.384,0.133-0.539
	c0.075-0.155,0.129-0.208,0.175-0.281c0.045-0.072,0.185-0.245,0.295-0.291c0.259-0.108,0.428-0.012,0.707,0.043
	c0.119,0.024,0.219,0.068,0.253,0.103c0.033,0.035,0.053,0.066,0.039,0.095c-0.015,0.03-0.024,0.386-0.128,0.61
	c0,0-0.012,0.12-0.004,0.172c0.008,0.053,0.061,0.142,0.061,0.216c0.001,0.073,0.043,0.201,0.094,0.297
	c0.009,0.017-0.007,0.053,0.002,0.108c0.012,0.071,0.052,0.17,0.101,0.254c0.049,0.083,0.098,0.202,0.146,0.283
	c0.023,0.039,0.069,0.059,0.095,0.099c0.034,0.052,0.047,0.126,0.063,0.183c0,0,0.01,0.056,0.007,0.104
	c-0.004,0.062-0.026,0.128-0.017,0.186c0.01,0.071-0.002,0.128,0.048,0.186c0.023,0.026,0.103,0.044,0.145,0.08
	c0.142,0.122,0.393,0.507,0.392,0.689c-0.001,0.128-0.186,0.31-0.22,0.403c-0.034,0.094-0.14,0.448-0.232,0.513
	c-0.092,0.065-0.291,0.114-0.363,0.081c-0.071-0.033-0.177-0.14-0.177-0.14l-0.206-0.059l-0.177,0.05c0,0-0.025-0.078-0.001-0.145
	c0.024-0.067,0.032-0.17,0.026-0.324c-0.005-0.153-0.134-0.572-0.233-0.781c0,0-0.029-0.276-0.087-0.471
	c-0.058-0.195-0.223-0.474-0.241-0.633c-0.019-0.159-0.005-0.343-0.008-0.397c-0.003-0.054-0.013-0.361-0.091-0.503
	c-0.078-0.142-0.154-0.162-0.213-0.145c-0.059,0.017-0.093,0.133-0.118,0.223c-0.025,0.089-0.148,0.325-0.067,0.666
	c0,0,0.032,0.163,0.104,0.174c0.072,0.011,0.174,0.063,0.2,0.118c0.026,0.055,0.092,0.269,0.095,0.322
	c0.003,0.055-0.002,0.257-0.066,0.309c-0.065,0.052-0.177,0.05-0.303,0.02c-0.126-0.03-0.227,0.04-0.297-0.039
	c-0.07-0.079-0.187-0.09-0.228-0.249c-0.041-0.159-0.041-0.159-0.047-0.267c-0.006-0.108-0.085-0.228-0.128-0.274
	c-0.044-0.046-0.108-0.016-0.108-0.016s-0.001,0.235-0.039,0.296c-0.038,0.063,0.002,0.266,0.03,0.42
	c0.028,0.154,0.025,0.267,0.03,0.397c0.006,0.131,0.147,0.41,0.191,0.478c0.044,0.069,0.307,0.536,0.261,0.724
	c-0.045,0.188-0.054,0.36-0.107,0.484c-0.053,0.124-0.407,0.224-0.407,0.224s-0.206-0.059-0.299-0.283
	c-0.093-0.223-0.224-0.406-0.243-0.542c-0.019-0.136-0.053-0.398-0.068-0.525c-0.015-0.127-0.017-0.392-0.009-0.518
	c0.008-0.126,0.044-0.31,0.033-0.405c-0.011-0.095-0.033-0.284-0.12-0.255c0,0-0.096,0.056-0.124,0.258
	c-0.028,0.202-0.058,0.35-0.047,0.445c0.011,0.094-0.116,0.299-0.251,0.295c0,0-0.144,0.001-0.222,0.049
	c-0.078,0.048-0.037,0.229-0.021,0.31c0.016,0.082,0.255,0.782,0.268,0.999c0.013,0.217-0.159,0.942-0.285,1.101
	c0,0-0.221,0.193-0.336,0.28c-0.115,0.087-0.235,0.021-0.235,0.021s-0.33-0.135-0.402-0.168c-0.071-0.033-0.095-0.156-0.183-0.249
	c-0.088-0.092-0.059-0.15-0.013-0.217c0.047-0.067,0.232-0.242,0.232-0.242s0.281-0.588,0.239-0.89
	c-0.042-0.303-0.021-0.758-0.13-0.919c-0.109-0.16-0.21-0.371-0.337-0.357c-0.102,0.012-0.171,0.041-0.227,0.098
	C26.928,9.6,26.899,9.628,26.882,9.67c-0.003,0.009-0.007,0.017-0.007,0.026c0.003,0.083-0.057,0.163-0.057,0.163
	s0.027,0.144,0.02,0.224c-0.006,0.081,0.053,0.265,0.127,0.375c0.053,0.079,0.121,0.205,0.109,0.297
	c-0.005,0.036-0.056,0.066-0.074,0.087c-0.201,0.232-0.176,0.557-0.545,0.333c-0.124-0.075-0.272-0.106-0.272-0.106
	s-0.075-0.032-0.21-0.258c-0.246-0.412,0.039-0.237-0.005-0.465c-0.012-0.063,0.005-0.179-0.028-0.267
	c-0.015-0.04-0.069-0.092-0.09-0.1C25.783,9.955,25.701,9.944,25.67,9.884L25.67,9.884z"/>
<path class="st1" d="M63.29,21.645c0.116,0.01,0.369,0.023,0.56,0.042c0.191,0.019,0.423,0.065,0.623,0.276
	c0,0-0.13,0.257-0.16,0.366c-0.03,0.109-0.055,0.252-0.354,0.456c-0.3,0.204-0.278,0.157-0.278,0.157s-0.124,0.01-0.44-0.196
	c-0.316-0.207-0.417-0.299-0.578-0.426c-0.161-0.128-0.286-0.316-0.286-0.316c-0.04,0.209,0.012,0.159,0.08,0.351
	c0.032,0.09,0.269,0.425,0.335,0.536c0.066,0.111,0.09,0.222,0.101,0.345c0.01,0.124,0.002,0.466,0.133,0.661
	c0,0,0.26,0.26,0.376,0.27c0.116,0.01,0.384-0.017,0.384-0.017s0.574,0.015,0.815-0.293c0.241-0.308,0.236-0.384,0.366-0.627
	c0.13-0.243,0.275-0.575,0.475-0.604c0,0,0.245,0.048,0.348,0.044c0.104-0.003,0.25-0.011,0.298-0.044
	c0.028-0.019,0.111-0.094,0.138-0.171c0.029-0.084-0.016-0.117-0.034-0.159c-0.043-0.102,0.068-0.162,0.14-0.324
	c0,0-0.061-0.193-0.161-0.299c-0.1-0.105-0.173-0.196-0.452-0.265c-0.279-0.069-0.541-0.234-0.962-0.395
	c-0.42-0.162-0.957-0.333-1.206-0.483c0,0-0.3-0.063-0.481-0.198c-0.187-0.139-0.248-0.436-0.511-0.356
	c-0.062,0.019-0.05,0.088-0.05,0.088s-0.043,0.321,0.007,0.5c0.093,0.334-0.066,0.725,0.312,0.906
	C63.007,21.514,63.174,21.635,63.29,21.645L63.29,21.645z M67.771,17.169c0,0-0.532,0.592-0.677,0.73
	c-0.146,0.138-0.707,0.699-0.776,0.78c-0.07,0.08-0.142,0.265-0.227,0.39c-0.086,0.125-0.123,0.191-0.119,0.244
	c0.004,0.053,0.103,0.063,0.297,0.068c0.094,0.002,0.172,0.053,0.221,0.058c0.021,0.002,0.032-0.007,0.054,0l0.221,0.06
	c0,0,0.105,0.018,0.241,0.043c0.094,0.018,0.198,0.032,0.257,0.028c0.056-0.004,0.073,0.01,0.125,0.061
	c0.149,0.145,0.174,0.43,0.174,0.43c0.002,0.039-0.059,0.085,0,0.133c0.04,0.032,0.107-0.057,0.188-0.046
	c0.055,0.007,0.115,0.082,0.181,0.146c0.133,0.13,0.122,0.192,0.118,0.322c-0.002,0.074-0.023,0.143-0.063,0.19
	c-0.059,0.07-0.14,0.066-0.218,0.076c-0.088,0.012-0.17,0.033-0.216,0.024c-0.086-0.017-0.25-0.062-0.327-0.115
	c-0.025-0.017-0.102-0.082-0.202-0.147c-0.128-0.084-0.295-0.176-0.468-0.269c-0.111-0.059-0.241-0.095-0.334-0.138
	c-0.349-0.161-1.01-0.59-1.138-0.651c-0.128-0.061-0.505-0.295-0.505-0.295c-0.166-0.011-0.254,0.297-0.27,0.383
	c-0.017,0.086-0.02,0.201-0.029,0.266c-0.009,0.065,0.082,0.19,0.082,0.19s0.518,0.339,0.632,0.399
	c0.114,0.061,0.752,0.244,0.752,0.244c0.181-0.008,0.332-0.015,0.467,0.02c0.259,0.066,0.425,0.219,0.501,0.23
	c0.115,0.017,0.52,0.028,0.52,0.028s0.173,0.019,0.208,0.056c0.035,0.037,0.061,0.139,0.067,0.204
	c0.006,0.065-0.163,0.169-0.264,0.166c-0.101-0.003-0.452-0.113-0.452-0.113s-0.201-0.063-0.173-0.019
	c0.028,0.044,0.422,0.549,0.464,0.594c0.131,0.138,0.136,0.16,0.402,0.223c0.244,0.05,0.261-0.022,0.335-0.121
	c0.075-0.1,0.225-0.58,0.22-0.688c-0.008-0.191-0.032-0.267,0.081-0.315c0,0,0.184,0.149,0.226,0.193
	c0.134,0.142,0.29,0.046,0.364-0.091c0.132-0.246-0.076-0.394,0.2-0.425c0.034-0.004,0.031,0.002,0.061,0.018
	c0.042,0.021,0.126,0.05,0.254,0.03c0.196-0.031,1.014-0.118,1.079-0.109c0.065,0.009,0.318,0.009,0.362-0.019
	c0.044-0.028,0.143-0.206,0.139-0.343c-0.008-0.292,0.136-0.23-0.066-0.377c-0.064-0.047-0.094-0.057-0.172-0.078
	c-0.063-0.017-0.147-0.041-0.232-0.07c-0.165-0.055-0.373-0.166-0.443-0.185c-0.367-0.103-0.257-0.292-0.075-0.464
	c0.134-0.128,0.189-0.11,0.095-0.301l-0.108-0.15c-0.007-0.009-0.011-0.019-0.01-0.026c0.002-0.008,0.012-0.024,0.021-0.036
	c0.025-0.037,0.076-0.095,0.15-0.148c0.063-0.044,0.177-0.127,0.254-0.211c0.068-0.074,0.103-0.155,0.103-0.155
	s0.01-0.123-0.023-0.217c-0.033-0.095-0.044-0.24-0.063-0.334c-0.008-0.041-0.006-0.078-0.012-0.109
	c-0.004-0.019-0.019-0.05-0.023-0.067c-0.02-0.095-0.051-0.096-0.111-0.034c-0.015,0.016-0.023,0.047-0.046,0.068
	c-0.067,0.064-0.178,0.197-0.271,0.219c-0.04,0.009-0.139,0.077-0.225,0.111c-0.102,0.041-0.199,0.02-0.25,0.041
	c-0.051,0.02-0.174,0.01-0.252-0.028c-0.049-0.024-0.156-0.142-0.234-0.205c-0.033-0.026-0.068-0.054-0.087-0.048
	c-0.011,0.004-0.009,0.028-0.019,0.047l0.008,0.108c0.019,0.086,0.029,0.147,0.04,0.202c0.009,0.043,0.027,0.08-0.002,0.147
	c-0.031,0.072-0.25,0.124-0.403,0.2c-0.154,0.075-0.599,0.096-0.599,0.096c0.054,0.101,0.233,0.051,0.337,0.049
	c0.164-0.002,0.2,0.029,0.279,0.067c0.078,0.038,0.299,0.107,0.407,0.117c0.108,0.01,0.181,0.072,0.181,0.072
	c0.104,0.181-0.089,0.277-0.089,0.277s-0.136,0.069-0.354,0.112c-0.217,0.043-0.589,0.211-0.675,0.179
	c-0.086-0.031-0.175-0.309-0.175-0.309s-0.078-0.182-0.109-0.163c-0.162,0.102-0.073,0.071-0.089,0.187
	c-0.009,0.065-0.001,0.325-0.001,0.325c-0.045,0.057-0.357,0.137-0.444,0.149c-0.061,0.008-0.282,0.017-0.418-0.002
	c-0.031-0.005-0.073-0.018-0.063-0.059c0.015-0.064,0.019-0.12,0.042-0.15c0.023-0.029,0.071-0.079,0.115-0.149
	c0.026-0.042,0.076-0.113,0.097-0.165c0.056-0.141,0.492-0.74,0.578-0.85c0.059-0.075,0.248-0.25,0.34-0.374
	c0.042-0.056,0.02-0.113,0.032-0.125c0.038-0.037,0.065-0.178,0.065-0.178l0.009-0.082L67.771,17.169L67.771,17.169z M69.107,19.391
	l0.442,0.493c0.06,0.078,0.041,0.153-0.028,0.226c-0.078,0.082-0.234,0.188-0.392,0.258c-0.091,0.041-0.177,0.101-0.273,0.095
	c-0.109-0.007-0.225-0.086-0.261-0.112c-0.018-0.013-0.317-0.028-0.323-0.106c-0.004-0.048,0.026-0.225,0.029-0.297
	c-0.008-0.065-0.039-0.25-0.04-0.34c0-0.017-0.038-0.107-0.008-0.129c0.03-0.021,0.499-0.07,0.741-0.112
	C69.089,19.352,69.084,19.376,69.107,19.391L69.107,19.391z M66.367,17.245c0.004,0.116-0.012,0.487-0.004,0.538
	c0.009,0.058,0.116,0.132,0.046,0.206c-0.025,0.026-0.08,0.084-0.144,0.15c-0.115,0.119-0.258,0.266-0.317,0.318
	c-0.041,0.036-0.116,0.131-0.226,0.224c-0.107,0.092-0.247,0.183-0.356,0.242c-0.063,0.035-0.102,0.074-0.091-0.037
	c0.002-0.017,0.006-0.036,0.017-0.059c0.04-0.091,0.053-0.156,0.127-0.241c0.075-0.084,0.122-0.218,0.18-0.319
	c0.058-0.102,0.217-0.239,0.278-0.33c0.061-0.091,0.074-0.163,0.132-0.271c0.034-0.065,0.14-0.215,0.231-0.327
	c0.046-0.057,0.091-0.106,0.113-0.122C66.371,17.202,66.367,17.233,66.367,17.245L66.367,17.245z"/>
<path class="st1" d="M11.655,22.607c0,0-0.069,0.233,0.065,0.501c0.048,0.097,0.197,0.195,0.265,0.328
	c0.079,0.154,0.097,0.314,0.225,0.522c0.007,0.012,0.058,0.054,0.108,0.136c0.026,0.043,0.02,0.107,0.059,0.158
	c0.026,0.035,0.096,0.059,0.12,0.092c0.039,0.054,0.037,0.11,0.074,0.151c0.07,0.076,0.177,0.108,0.241,0.068
	c0.072-0.044,0.221-0.106,0.432-0.119c0.096-0.006,0.352-0.209,0.281-0.298c-0.051-0.065-0.111-0.15-0.259-0.251
	c-0.148-0.102-0.591-0.294-0.848-0.531c-0.257-0.237-0.447-0.447-0.557-0.532C11.751,22.746,11.655,22.607,11.655,22.607
	L11.655,22.607z M14.591,20.695c0.013-0.04,0.073-0.015,0.163-0.033c0.058-0.012,0.118-0.045,0.164-0.049
	c0.052-0.005,0.111,0.039,0.219,0.04c0.383,0.007,0.6-0.006,0.877,0.121c0,0,0.207,0.111,0.25,0.282
	c0.044,0.172,0.011,0.207,0.002,0.254c-0.009,0.048-0.278,0.346-0.278,0.346s-0.185-0.083-0.267-0.147
	c-0.083-0.064-0.578-0.364-0.631-0.395c-0.021-0.012-0.145-0.028-0.233-0.088c-0.11-0.075-0.235-0.173-0.269-0.214l-0.017-0.057
	L14.591,20.695L14.591,20.695z M10.857,20.329c0.021-0.09,0.016-0.165,0.019-0.245c0.003-0.08-0.005-0.153-0.025-0.243
	c-0.01-0.049-0.053-0.114-0.066-0.177c-0.059-0.288-0.097-0.705-0.188-1.179c-0.016-0.082-0.059-0.145-0.086-0.224
	c-0.025-0.07-0.034-0.158-0.049-0.221c-0.067-0.281-0.04-0.427-0.082-0.622c-0.055-0.257-0.113-0.522-0.121-0.586
	c-0.017-0.137-0.019-0.25-0.048-0.339c-0.029-0.088-0.008-0.169,0.021-0.195c0.029-0.027,0.134,0.006,0.134,0.006
	s0.236-0.021,0.322,0.005c0.086,0.025,0.143,0.11,0.203,0.149c0.033,0.021,0.161,0.084,0.276,0.076
	c0.095-0.007,0.176-0.08,0.235-0.105c0,0,0.118-0.136,0.166-0.019c0.048,0.118,0.029,0.155,0.013,0.187
	c-0.028,0.058-0.04,0.101-0.064,0.136c-0.018,0.027-0.057,0.068-0.079,0.109c-0.094,0.175-0.361,0.622-0.406,1.141
	c-0.01,0.119-0.013,0.255-0.02,0.39c-0.006,0.112-0.018,0.222-0.013,0.335c0.007,0.149-0.021,0.294,0.002,0.435
	c0.01,0.06,0.034,0.118,0.036,0.171c0.002,0.068-0.019,0.13-0.015,0.194c0.004,0.078,0.011,0.144,0.008,0.216
	c-0.002,0.082-0.019,0.177-0.031,0.264c-0.011,0.079-0.03,0.157-0.039,0.233c-0.004,0.034,0,0.068-0.003,0.103
	c-0.015,0.073-0.01,0.105,0.07,0.127c0.041,0.012,0.048,0.015,0.08-0.013c0.06-0.054,0.172-0.317,0.233-0.692
	c0.061-0.375,0.114-0.693,0.114-0.693s0.029-0.333,0.027-0.426c-0.002-0.093,0.046-0.083,0.046-0.083s0.108-0.021,0.123,0.019
	c0.015,0.04,0.045,0.072,0.045,0.072s0.143,0.028,0.235-0.019c0.054-0.029,0.046-0.142,0.056-0.215
	c0.013-0.1-0.005-0.444,0.017-0.602c0.012-0.091,0.048-0.229,0.109-0.359c0.045-0.095,0.112-0.182,0.154-0.265
	c0.099-0.199,0.135-0.353,0.196-0.49c0.053-0.121,0.108-0.289,0.248-0.249c0,0,0.13,0.045,0.147,0.095
	c0.017,0.05,0.055,0.154,0.119,0.202c0.063,0.049,0.264,0.407,0.4,0.539c0.136,0.133,1.323,1.258,1.622,1.451
	c0.299,0.193,0.481,0.363,0.548,0.425c0.067,0.061,0.711,0.521,0.741,0.545c0.03,0.023,1.189,0.864,1.31,0.967
	c0.12,0.103,0.448,0.344,0.491,0.387c0.027,0.026,0.281,0.218,0.326,0.271c0.051,0.06,0.043,0.145,0.017,0.201
	c-0.068,0.15-0.114,0.277-0.116,0.32c-0.001,0.03-0.095,0.189-0.146,0.251c-0.032,0.039-0.085,0.063-0.133,0.06
	c-0.062-0.005-0.129-0.013-0.206-0.048c-0.043-0.02-0.118-0.031-0.205-0.052c-0.112-0.028-0.252-0.065-0.435-0.078
	c-0.407-0.029-0.579-0.043-0.635-0.048c-0.027-0.002-0.032-0.006-0.055-0.022c-0.052-0.037-0.162-0.105-0.145-0.135
	c0.009-0.017,0.084-0.114,0.162-0.214c0.061-0.078,0.115-0.163,0.162-0.2c0.016-0.012,0.096-0.019,0.195-0.036
	c0.09-0.015,0.162-0.044,0.197-0.095c0.029-0.043,0.112-0.064,0.129-0.151c0.017-0.084-0.061-0.098-0.104-0.131
	c-0.03-0.023-0.867-0.787-1.112-0.967c-0.163-0.12-0.655-0.463-1.031-0.746c-0.19-0.143-0.351-0.271-0.425-0.348
	c-0.219-0.228-0.661-0.595-0.743-0.687c-0.082-0.093-0.604-0.564-0.709-0.703c-0.105-0.139-0.178-0.227-0.205-0.268
	c-0.059-0.089-0.15-0.119-0.157-0.048c-0.01,0.089-0.056,0.159-0.114,0.213c-0.09,0.086-0.208,0.092-0.249,0.133
	c-0.082,0.081-0.189,0.477-0.185,0.547c0.003,0.07,0.09,0.408,0.053,0.504c-0.037,0.097-0.099,0.29-0.174,0.337
	c0,0-0.066-0.002-0.137-0.01c-0.071-0.007-0.173,0.011-0.233,0.089c-0.061,0.079-0.047,0.359-0.031,0.439
	c0.016,0.079,0.056,0.139,0.056,0.139s0.155-0.15,0.206-0.216c0.256-0.33,0.224-0.299,0.591-0.14c0,0,0.143-0.198,0.171-0.283
	c0.027-0.085,0.133-0.022,0.133-0.022s0.074,0.067,0.091,0.119c0.017,0.052,0.101,0.406,0.108,0.546
	c0.007,0.141,0.073,0.23,0.127,0.273c0.054,0.042,0.111,0.056,0.173-0.011c0.062-0.068,0.089-0.202,0.331-0.091
	c0,0,0.137,0.048,0.138,0.097c0.001,0.049,0.012,0.221,0.008,0.276c-0.004,0.055,0.134,0.625,0.314,0.928
	c0,0,0.013,0.145,0.446,0.346c0.433,0.2,0.547,0.278,0.585,0.328c0.039,0.049,0.338,0.174,0.303,0.717c0,0,0.01,0.248-0.325,0.22
	c0,0-0.191-0.002-0.385-0.163c-0.122-0.1-0.183-0.151-0.215-0.171c-0.033-0.021-0.031-0.011-0.053,0.023
	c-0.029,0.043-0.071,0.119-0.05,0.162c0.029,0.061,0.119,0.169,0.166,0.234c0.046,0.065,0.114,0.301,0.093,0.391
	c-0.013,0.056-0.04,0.09-0.094,0.104c-0.033,0.008-0.077,0.011-0.131,0.002c-0.054-0.01-0.12-0.002-0.165-0.018
	c-0.074-0.026-0.114-0.086-0.114-0.17c0,0-0.036-0.153-0.053-0.33c-0.017-0.177-0.023-0.307-0.036-0.365
	c-0.013-0.058-0.019-0.15-0.058-0.199c-0.039-0.05-0.315-0.254-0.369-0.296c0,0-0.084-0.017-0.115,0.037
	c-0.031,0.052-0.057,0.11,0.006,0.178c0.063,0.068,0.108,0.122,0.075,0.165c-0.033,0.042-0.226,0.192-0.345,0.109
	c-0.119-0.083-0.231-0.189-0.243-0.333c0,0,0.052-0.23,0.036-0.445c-0.017-0.215-0.06-0.346-0.134-0.413
	c-0.074-0.066-0.072-0.094-0.072-0.094s-0.064,0.182-0.069,0.313c-0.005,0.131,0.022,0.345-0.005,0.43
	c-0.027,0.085-0.028,0.161-0.074,0.183c-0.046,0.022-0.079,0.064-0.301,0.066c-0.223,0.001-0.319,0.1-0.475,0.066
	c-0.157-0.034-0.129-0.119-0.13-0.207c0-0.087,0.166-0.315,0.188-0.442c0.022-0.128,0.101-0.404,0.125-0.597
	c0.024-0.193,0.059-0.524,0.069-0.612c0.01-0.089-0.024-0.144-0.024-0.144l-0.247-0.229c0,0-0.069,0.014-0.168,0.13
	c-0.099,0.116-0.149,0.067-0.313,0.529c0,0-0.075,0.222-0.164,0.336c-0.089,0.115-0.114,0.086-0.161,0.146
	c-0.047,0.06-0.134,0.147-0.192,0.198c-0.059,0.051-0.431,0.102-0.46,0.093c-0.029-0.009,0.125-0.197,0.187-0.324
	c0.062-0.127,0.128-0.259,0.14-0.323c0.004-0.022,0.008-0.047,0.007-0.078c-0.002-0.04-0.005-0.071,0.004-0.103
	c0.007-0.028,0.013-0.04,0.031-0.062C10.826,20.398,10.843,20.392,10.857,20.329L10.857,20.329z M9.122,20.932
	c0.038-0.113,0.111-0.16,0.164-0.327c0.032-0.1,0.036-0.174,0.062-0.279c0.03-0.124,0.079-0.238,0.068-0.343
	c0,0-0.006-0.061,0.002-0.144c0.006-0.065,0.034-0.143-0.006-0.219c-0.026-0.05-0.09-0.074-0.181-0.117
	c-0.006-0.003-0.012-0.006-0.018-0.009c-0.028-0.012-0.063-0.01-0.085-0.029c-0.095-0.088-0.266-0.128-0.327-0.226
	c-0.042-0.067-0.024-0.141,0.013-0.207c0.022-0.039,0.021-0.087,0.101-0.097c0.06-0.007,0.284,0.019,0.348,0.006
	c0.065-0.013,0.169-0.065,0.218-0.082c0.049-0.017,0.253-0.066,0.342,0.026c0.025,0.026,0.105,0.073,0.143,0.086
	c0.038,0.013,0.046-0.029,0.066-0.027c0.041,0.005,0.132,0.014,0.19,0.032c0.058,0.018,0.165-0.01,0.176,0.116
	c0.008,0.087-0.075,0.126-0.058,0.187c0.008,0.028,0.042,0.052,0.066,0.115c0.035,0.093,0.109,0.248,0.084,0.331
	c-0.03,0.099-0.167,0.121-0.202,0.173c-0.064,0.094-0.045,0.245-0.051,0.393c-0.006,0.149-0.051,0.475-0.025,0.523
	c0.027,0.048,0.015,0.156,0.003,0.219c-0.012,0.063-0.081,0.109-0.177,0.116c-0.069,0.005-0.194-0.014-0.299-0.021
	c-0.041-0.002-0.084-0.018-0.112-0.007c-0.102,0.038-0.238,0.017-0.294,0.018c-0.036,0.001-0.12,0.04-0.17,0.032
	C9.093,21.16,9.095,21.011,9.122,20.932L9.122,20.932z"/>
<path class="st1" d="M52.956,11.31c0,0,0.179,0.084,0.22,0.153c0.027,0.046,0.171,0.437,0.198,0.503
	c0.027,0.069,0.178,0.122,0.257,0.285c0.056,0.115,0.055,0.269,0.086,0.413c0.025,0.112,0.084,0.22,0.104,0.272
	c0.077,0.201,0.12,0.756-0.027,0.822c-0.055,0.025-0.171-0.042-0.253-0.027c-0.136,0.025-0.33,0.046-0.429,0.055
	c-0.16,0.014-0.259,0.122-0.387,0.09c-0.128-0.032-0.18-0.078-0.158-0.211c0.022-0.132,0.252-0.72,0.28-1.004
	C52.907,12.056,52.973,11.575,52.956,11.31L52.956,11.31z M48.702,8.83c0.086,0.046,0.189,0.165,0.313,0.185
	c0.124,0.021,1.136,0.196,1.588,0.17c0.452-0.025,0.615-0.005,0.722-0.024c0.108-0.02,0.353,0.025,0.515-0.196
	c0.162-0.222,0.492-0.704,0.598-0.923c0.106-0.219,0.224-0.543,0.267-0.668c0.043-0.125,0.088-0.381,0.018-0.577
	c0,0-0.021-0.208,0.07-0.29c0.091-0.082,0.262-0.096,0.305-0.144c0.023-0.025,0.061-0.039,0.099-0.035
	c0.023,0.003,0.053,0.021,0.062,0.027c0.019,0.011,0.03,0.036,0.034,0.045c0.021,0.05,0.116,0.278,0.201,0.425
	c0.095,0.163,0.348,0.6,0.371,0.698c0.024,0.098,0.051,0.264-0.045,0.41c0,0-0.103,0.11-0.162,0.195
	c-0.059,0.085-0.026,0.242-0.129,0.275c-0.102,0.033-0.327,0.167-0.394,0.271c-0.067,0.104-0.119,0.224-0.138,0.293
	c-0.019,0.069-0.036,0.161-0.036,0.161s0.056,0.024,0.15,0.01c0.095-0.014,0.286,0.003,0.384-0.021
	c0.049-0.012,0.212,0.002,0.357-0.034c0.087-0.021,0.146-0.092,0.228-0.11c0.056-0.012,0.114,0.002,0.155-0.01
	c0.056-0.015,0.108-0.015,0.143-0.027c0.044-0.015,0.065-0.041,0.093-0.063c0.048-0.036,0.045-0.088,0.037-0.137
	c-0.005-0.028-0.014-0.063-0.03-0.097c-0.014-0.03-0.02-0.074-0.039-0.112c-0.007-0.014-0.009-0.022-0.004-0.033l0.01-0.021
	c0.008-0.013,0.025-0.015,0.038-0.004c0.035,0.027,0.143,0.112,0.181,0.177c0.045,0.077,0.19,0.263,0.213,0.345
	c0.023,0.082-0.028,0.138-0.087,0.146c-0.041,0.006-0.206,0.019-0.367,0.044c-0.067,0.01-0.147,0.017-0.187,0.035
	c-0.073,0.033-0.186,0.058-0.292,0.133c-0.093,0.066-0.159,0.168-0.263,0.195c-0.223,0.058-0.558,0.053-0.665,0.095
	c-0.107,0.042-0.315,0.117-0.433,0.21c-0.117,0.093-0.183,0.219-0.255,0.232c-0.072,0.013-0.254,0.155-0.315,0.194
	c-0.061,0.04-0.202,0.288-0.326,0.422c-0.124,0.134-0.303,0.42-0.335,0.495c-0.032,0.074-0.143,0.201-0.233,0.306
	c-0.09,0.105-0.267,0.26-0.57,0.272c0,0-0.235-0.002-0.373,0.036c-0.138,0.04-0.278,0.07-0.389,0.098
	c-0.112,0.029-0.326,0.091-0.824-0.058c-0.498-0.149-0.596-0.203-0.868-0.265c-0.237-0.054-0.661-0.164-0.764-0.191
	c-0.04-0.01,0.004-0.109,0.063-0.097c0.045,0.009,0.134,0.025,0.237,0.032c0.15,0.01,0.567-0.086,0.905-0.128
	c0.338-0.041,0.711-0.09,0.942-0.188c0.23-0.099,0.813-0.222,1.025-0.329c0.212-0.107,0.527-0.478,0.567-0.571
	c0,0-0.004-0.145-0.13-0.133c-0.126,0.011-0.639,0.099-0.806,0.104c-0.168,0.005-0.278-0.021-0.578,0.037
	c-0.301,0.058-0.505,0.146-0.657,0.014c-0.152-0.132-0.225-0.295-0.338-0.521C48.5,9.486,48.398,9.258,48.379,9.08
	c-0.006-0.056,0.032-0.09,0.084-0.134C48.515,8.902,48.616,8.785,48.702,8.83L48.702,8.83z"/>
<path class="st0" d="M104.321,75.948h-7.719v-0.524c0.945,0.034,1.382-0.264,1.313-0.894v-6.403c0.07-0.629-0.367-0.927-1.313-0.893
	v-0.524h4.883v0.524c-0.945-0.034-1.382,0.264-1.313,0.893v6.352c-0.036,0.63,0.262,0.91,0.892,0.84
	c1.33-0.105,2.257-1.086,2.784-2.941h0.575L104.321,75.948L104.321,75.948z M109.039,75.948h-3.676v-0.524
	c0.735-0.105,1.295-0.683,1.68-1.733l2.992-7.137h0.683l3.465,7.977c0.208,0.596,0.629,0.894,1.259,0.894v0.524h-4.829v-0.524h0.524
	c0.56,0.034,0.822-0.123,0.788-0.472c0-0.071-0.018-0.21-0.054-0.421c0.036,0.141,0.018,0.106-0.051-0.105l-0.683-1.521h-2.938
	l-0.421,1.048c-0.105,0.175-0.175,0.455-0.211,0.84c0.036,0.422,0.298,0.631,0.788,0.631h0.683V75.948L109.039,75.948z
	 M110.824,72.167l-1.209-2.833l-1.153,2.833H110.824L110.824,72.167z M116.068,67.233v-0.524h3.255l4.516,6.298h0.051v-4.723
	c0.07-0.597-0.403-0.945-1.418-1.051v-0.524h3.36v0.524c-0.874,0.105-1.277,0.454-1.207,1.051v7.664h-1.259l-5.145-7.141h-0.054
	v5.722c-0.105,0.63,0.421,0.927,1.575,0.894v0.524h-3.622v-0.524c0.945,0.034,1.382-0.264,1.313-0.894v-6.403
	C117.501,67.497,117.046,67.199,116.068,67.233L116.068,67.233z M134.173,72.377l-0.051,3.57h-7.192v-0.683l4.829-7.926h-0.894
	c-1.924,0.036-2.938,0.894-3.044,2.573h-0.578l0.105-3.203h6.774v0.945l-4.673,7.664c2.553,0.105,3.935-0.875,4.146-2.941H134.173
	L134.173,72.377z M139.101,70.803h2.992v-2.677c0.036-0.629-0.349-0.927-1.156-0.893v-0.524h4.726v0.524
	c-0.945-0.034-1.382,0.264-1.313,0.893v6.403c-0.07,0.63,0.367,0.927,1.313,0.894v0.524h-4.726v-0.524
	c0.807,0.034,1.192-0.264,1.156-0.894V71.38h-2.992v3.149c-0.036,0.63,0.349,0.927,1.156,0.894v0.524h-4.673v-0.524
	c0.91,0.034,1.331-0.264,1.259-0.894v-6.403c0.072-0.629-0.349-0.927-1.259-0.893v-0.524h4.673v0.524
	c-0.806-0.034-1.192,0.264-1.156,0.893V70.803L139.101,70.803z M146.917,71.327c0.316-2.902,1.89-4.495,4.726-4.775
	c2.8,0.314,4.357,1.906,4.672,4.775c-0.28,2.871-1.839,4.428-4.672,4.672C148.773,75.755,147.197,74.198,146.917,71.327
	L146.917,71.327z M149.437,71.327c0,2.766,0.737,4.148,2.206,4.148c1.433,0.036,2.153-1.348,2.153-4.148
	c0-2.8-0.719-4.181-2.153-4.146C150.173,67.181,149.437,68.563,149.437,71.327L149.437,71.327z M157.516,66.709h4.724v0.524
	c-0.979-0.034-1.434,0.264-1.364,0.893v5.512c0.069,1.12,0.699,1.731,1.89,1.837c1.539,0,2.309-0.771,2.309-2.309v-4.882
	c0.105-0.597-0.385-0.945-1.469-1.051v-0.524h3.411v0.524c-0.91,0.105-1.33,0.454-1.259,1.051v4.777c0,1.96-1.174,2.938-3.518,2.938
	c-2.274-0.033-3.429-0.891-3.465-2.571v-5.302c0.072-0.629-0.349-0.927-1.259-0.893V66.709L157.516,66.709z M174.647,66.709h4.724
	v0.524c-0.979-0.034-1.434,0.264-1.364,0.893v5.512c0.069,1.12,0.699,1.731,1.89,1.837c1.539,0,2.309-0.771,2.309-2.309v-4.882
	c0.105-0.597-0.385-0.945-1.469-1.051v-0.524h3.411v0.524c-0.909,0.105-1.33,0.454-1.259,1.051v4.777
	c0,1.96-1.174,2.938-3.518,2.938c-2.274-0.033-3.429-0.891-3.465-2.571v-5.302c0.071-0.629-0.349-0.927-1.259-0.893V66.709
	L174.647,66.709z M184.984,67.233v-0.524h3.254l4.516,6.298h0.051v-4.723c0.07-0.597-0.403-0.945-1.418-1.051v-0.524h3.36v0.524
	c-0.874,0.105-1.277,0.454-1.207,1.051v7.664h-1.259l-5.145-7.141h-0.054v5.722c-0.105,0.63,0.421,0.927,1.574,0.894v0.524h-3.622
	v-0.524c0.945,0.034,1.382-0.264,1.313-0.894v-6.403C186.418,67.497,185.963,67.199,184.984,67.233L184.984,67.233z M200.831,75.948
	h-4.881v-0.524c0.943,0.034,1.382-0.264,1.311-0.894v-6.403c0.072-0.629-0.367-0.927-1.311-0.893v-0.524h4.881v0.524
	c-0.945-0.034-1.382,0.264-1.313,0.893v6.403c-0.069,0.63,0.368,0.927,1.313,0.894V75.948L200.831,75.948z M201.773,67.233v-0.524
	h4.462v0.524c-0.875-0.034-1.279,0.141-1.207,0.526c-0.105-0.141,0.473,1.731,1.731,5.617h0.054
	c0.069-0.211,0.175-0.508,0.314-0.894c1.294-3.396,1.821-4.898,1.574-4.516c0-0.488-0.368-0.734-1.102-0.734v-0.524h3.046v0.524
	c-0.665,0.072-1.068,0.367-1.209,0.893l-2.887,7.821h-1.102l-2.52-7.77C202.751,67.479,202.366,67.163,201.773,67.233
	L201.773,67.233z M219.403,66.709l0.105,3.308h-0.578c-0.488-1.785-1.539-2.679-3.149-2.679c-0.804-0.07-1.171,0.21-1.102,0.84
	v2.625c1.156,0.105,1.855-0.419,2.099-1.575h0.527v3.727h-0.527c-0.244-1.156-0.943-1.68-2.099-1.575v3.098
	c-0.036,0.593,0.332,0.874,1.102,0.84c1.749-0.036,2.869-0.999,3.36-2.887h0.578l-0.105,3.517h-8.505v-0.524
	c0.945,0.034,1.382-0.264,1.313-0.894v-6.403c0.069-0.629-0.368-0.927-1.313-0.893v-0.524H219.403L219.403,66.709z M229.794,73.901
	h0.524c0,1.4-0.647,2.099-1.942,2.099c-1.33,0.036-1.996-0.699-1.996-2.204c0.105-1.575-0.437-2.327-1.626-2.258v2.782
	c-0.105,0.807,0.331,1.174,1.313,1.104v0.524h-4.778v-0.524c0.945,0.034,1.382-0.264,1.313-0.894v-6.403
	c0.069-0.629-0.367-0.927-1.313-0.893v-0.524h4.724c2.24,0.036,3.378,0.858,3.413,2.469c-0.036,1.433-1.12,2.168-3.256,2.203v0.051
	c1.261,0.105,2.05,0.771,2.363,1.996c0.316,1.155,0.578,1.644,0.788,1.469C229.601,74.933,229.758,74.599,229.794,73.901
	L229.794,73.901z M224.754,68.126v2.887c1.644,0.033,2.432-0.578,2.361-1.836c-0.033-1.156-0.524-1.77-1.469-1.839
	C225.05,67.338,224.754,67.6,224.754,68.126L224.754,68.126z M231.783,75.948v-3.57h0.578c0.56,2.029,1.539,3.062,2.938,3.098
	c1.12-0.036,1.698-0.542,1.731-1.523c0-0.593-0.734-1.135-2.204-1.626c-1.996-0.701-2.992-1.61-2.992-2.73
	c0.105-1.924,1.156-2.939,3.149-3.044c0.665,0,1.297,0.175,1.89,0.524c0.211,0.105,0.349,0.157,0.421,0.157
	c0.139,0,0.28-0.121,0.419-0.367c0.036-0.07,0.069-0.121,0.105-0.157h0.524v3.203h-0.524c-0.491-1.785-1.364-2.694-2.625-2.73
	c-1.015,0.036-1.539,0.473-1.575,1.313c0,0.629,0.717,1.171,2.153,1.626c2.065,0.665,3.098,1.646,3.098,2.941
	c-0.105,1.785-1.189,2.763-3.254,2.938c-0.735,0-1.472-0.139-2.206-0.419c-0.244-0.105-0.419-0.157-0.524-0.157
	c-0.175,0-0.349,0.157-0.524,0.473c-0.036,0.034-0.054,0.052-0.054,0.052H231.783L231.783,75.948z M245.425,75.948h-4.881v-0.524
	c0.943,0.034,1.382-0.264,1.31-0.894v-6.403c0.072-0.629-0.367-0.927-1.31-0.893v-0.524h4.881v0.524
	c-0.945-0.034-1.382,0.264-1.313,0.893v6.403c-0.069,0.63,0.368,0.927,1.313,0.894V75.948L245.425,75.948z M246.68,66.709h8.662
	l0.054,3.255h-0.63c-0.421-1.749-1.297-2.625-2.625-2.625v7.191c-0.072,0.63,0.418,0.927,1.469,0.894v0.524h-5.25v-0.524
	c1.12,0.034,1.628-0.264,1.523-0.894v-7.191c-1.33,0-2.204,0.875-2.625,2.625h-0.629L246.68,66.709L246.68,66.709z M256.177,67.233
	v-0.524h4.462v0.524c-0.699,0-1.051,0.141-1.051,0.421c0,0.105,0.071,0.298,0.21,0.578c0.036,0.069,0.054,0.12,0.054,0.156
	l1.416,2.676l1.261-2.519c0.139-0.313,0.21-0.56,0.21-0.734c0-0.385-0.385-0.578-1.156-0.578v-0.524h3.413v0.524
	c-0.806,0.072-1.297,0.385-1.472,0.945l-1.942,3.937v2.414c-0.07,0.63,0.421,0.927,1.469,0.894v0.524h-5.145v-0.524
	c1.12,0.034,1.628-0.264,1.523-0.894v-2.466l-1.731-3.359C257.245,67.654,256.737,67.163,256.177,67.233L256.177,67.233z"/>
<path class="st1" d="M141.139,26.61c-0.01-0.262,0.714-0.096,1.238-0.089c0.205,0.002,0.652,0.009,0.753,0.048
	c0.361,0.138,0.481,0.177,1.119,0.788c0.639,0.611,1.055,1.055,1.527,1.027c0.472-0.028,0.946-0.036,1.085-0.147
	c0.139-0.111,0.331-0.464,0.581-0.797c0.25-0.334,0.591-0.574,0.785-1.047c0.194-0.472,0.315-0.884,0.482-1.078
	c0.167-0.194,1.121-1.13,1.482-1.213c0.361-0.083,2.138-0.189,4.027,0.422c0,0,0.555,0.389,0.5,0.889
	c-0.055,0.5-0.139,1.972-0.111,2.194c0.028,0.222,0.055,0.417,0.444,0.666c0.389,0.25,0.889,0.444,1.527-0.111
	c0.639-0.555,1.583-1.305,2.027-1.749c0.444-0.444,0.889-1.028,1.166-1.444c0.278-0.417,0.583-1.222,1-1.5
	c0.417-0.278,0.889-0.555,1.777-0.361c0.889,0.195,1.444,0.334,1.833,0.444c0.389,0.111,0.778,0.416,0.778,0.416
	s0.278,0.361,0.222,0.861c-0.056,0.5-0.167,1.028-0.111,1.194c0.055,0.167,0.666,1.444,1.861,1.361c0,0,0.5,0,0.666-0.083
	c0.167-0.083,0.583-0.389,1.139-1.138c0.555-0.75,0.806-1.277,1.222-1.805c0.416-0.528,1.166-1.749,1.888-2.332
	c0.722-0.584,1.111-0.723,1.5-0.972c0.389-0.25,1.472-0.778,2.111-0.75c1.517,0.066,2.125,0.923,3.36,1.833
	c0.528,0.388,0.916,0.833,1,1.083c0.083,0.25,0.111,0.444-0.028,0.555c-0.139,0.111-1,1.832-2.027,2.694
	c0,0-0.333,0.555-0.417,0.833c-0.083,0.278-0.028,0.833-0.194,1.194c-0.166,0.361-0.25,1.083-0.222,1.666
	c0.005,0.107-0.155,0.246-0.236,0.538c-0.105,0.376-0.134,0.952-0.086,1.474c0.048,0.519,0.017,1.212,0.065,1.72
	c0.023,0.245,0.203,0.446,0.238,0.704c0.045,0.333-0.059,0.726-0.115,1.04c0,0-0.08,0.297-0.205,0.526
	c-0.16,0.294-0.422,0.564-0.513,0.87c-0.112,0.374-0.303,0.625-0.19,1.023c0.051,0.181,0.405,0.45,0.528,0.725
	c0.414,0.925,0.759,3.384,0.339,4.272c-0.297,0.628-1.622,1.088-2.003,1.47c-0.381,0.381-1.712,1.869-2.311,1.978
	c-0.599,0.109-1.689-0.109-1.962-0.436c-0.272-0.327-0.545-1.09-0.545-1.09l-0.872-0.762l-0.981-0.163c0,0,0.055-0.436,0.327-0.709
	c0.272-0.273,0.545-0.763,0.871-1.525c0.327-0.763,0.654-3.106,0.654-4.359c0,0,0.49-1.417,0.654-2.506
	c0.163-1.089,0-2.833,0.273-3.651c0.272-0.817,0.763-1.689,0.871-1.961c0.109-0.272,0.763-1.798,0.708-2.67
	c-0.055-0.872-0.381-1.144-0.708-1.198c-0.327-0.055-0.763,0.436-1.089,0.817c-0.327,0.381-1.471,1.253-1.852,3.105
	c0,0-0.218,0.871,0.109,1.09c0.327,0.218,0.708,0.708,0.708,1.035c0,0.327-0.163,1.526-0.273,1.798
	c-0.109,0.273-0.599,1.253-1.035,1.362c-0.436,0.109-0.981-0.164-1.525-0.6c-0.545-0.436-1.199-0.327-1.362-0.872
	c-0.163-0.545-0.708-0.872-0.545-1.743c0.163-0.872,0.163-0.872,0.381-1.416c0.218-0.545,0.109-1.308,0-1.634
	c-0.109-0.327-0.49-0.327-0.49-0.327s-0.545,1.144-0.871,1.362c-0.327,0.218-0.6,1.308-0.817,2.125
	c-0.218,0.817-0.49,1.362-0.763,2.016c-0.272,0.654-0.218,2.343-0.163,2.778c0.055,0.436,0.273,3.323-0.381,4.14
	c-0.654,0.817-1.09,1.635-1.634,2.125c-0.545,0.49-2.506,0.164-2.506,0.164s-0.872-0.763-0.817-2.07
	c0.055-1.308-0.163-2.506,0.055-3.214c0.218-0.708,0.654-2.071,0.872-2.725c0.218-0.654,0.817-1.961,1.144-2.561
	c0.327-0.599,0.926-1.416,1.09-1.907c0.163-0.49,0.49-1.471,0-1.526c0,0-0.599,0.055-1.199,0.981c-0.6,0.926-1.09,1.58-1.253,2.07
	c-0.164,0.491-1.253,1.199-1.907,0.872c0,0-0.708-0.327-1.199-0.273c-0.49,0.054-0.708,1.035-0.817,1.471
	c-0.109,0.436-0.545,4.414-0.981,5.503c-0.436,1.09-2.942,4.25-3.923,4.74c0,0-1.526,0.436-2.288,0.6
	c-0.763,0.163-1.199-0.436-1.199-0.436s-1.308-1.417-1.58-1.743c-0.272-0.327-0.109-0.981-0.327-1.634
	c-0.218-0.654,0.055-0.872,0.436-1.089c0.381-0.218,1.689-0.654,1.689-0.654s2.724-2.234,3.214-3.814
	c0.49-1.58,1.634-3.759,1.471-4.794c-0.163-1.035-0.175-2.3-0.829-2.517c-0.526-0.176-0.933-0.194-1.34-0.04
	c-0.185,0.07-0.388,0.142-0.571,0.31c-0.036,0.033-0.076,0.066-0.095,0.111c-0.174,0.413-0.652,0.666-0.652,0.666
	s-0.198,0.762-0.416,1.144c-0.218,0.382-0.347,1.416-0.238,2.125c0.078,0.509,0.124,1.284-0.146,1.705
	c-0.106,0.165-0.425,0.196-0.562,0.256c-1.516,0.674-2.139,2.322-3.432,0.382c-0.436-0.654-1.09-1.144-1.09-1.144
	s-0.294-0.33-0.436-1.744c-0.26-2.581,0.737-1.072,1.045-2.288c0.085-0.334,0.435-0.866,0.476-1.374
	c0.019-0.231-0.128-0.612-0.213-0.696C141.529,27.215,141.154,26.976,141.139,26.61L141.139,26.61z"/>
<path class="st1" d="M241.982,46.38c0.461-0.41,1.436-1.333,2.204-1.999c0.769-0.667,1.794-1.385,3.332-1.385
	c0,0,0.513,1.436,0.82,1.949c0.308,0.513,0.769,1.128,0.462,3.025c-0.307,1.897-0.41,1.641-0.41,1.641s-0.41,0.512-2.358,0.974
	c-1.948,0.461-2.666,0.513-3.743,0.667c-1.077,0.154-2.255-0.051-2.255-0.051c0.655,0.918,0.654,0.536,1.641,0.974
	c0.461,0.205,2.614,0.513,3.281,0.667c0.666,0.154,1.18,0.461,1.692,0.871c0.513,0.41,1.794,1.692,3.025,1.897
	c0,0,1.949-0.051,2.41-0.461c0.462-0.41,1.333-1.538,1.333-1.538s2.153-2.154,1.846-4.204c-0.307-2.05-0.615-2.307-1.077-3.691
	c-0.461-1.384-1.207-3.155-0.592-4.026c0,0,1.074-0.765,1.439-1.176c0.366-0.41,0.869-0.999,0.92-1.306
	c0.029-0.177,0.044-0.77-0.153-1.154c-0.215-0.419-0.509-0.365-0.733-0.449c-0.551-0.207-0.375-0.852-0.734-1.723
	c0,0-0.967-0.471-1.736-0.471c-0.769,0-1.384-0.051-2.666,0.769c-1.282,0.82-2.871,1.23-5.024,2.256
	c-2.153,1.025-4.768,2.46-6.255,2.87c0,0-1.333,0.923-2.512,1.128c-1.215,0.211-2.58-0.634-3.23,0.666
	c-0.154,0.308,0.154,0.513,0.154,0.513s1.077,1.333,1.949,1.794c1.621,0.858,2.545,2.898,4.614,2.102
	C240.443,46.995,241.52,46.79,241.982,46.38L241.982,46.38z M241.112,12.842c0,0,0.336,4.2,0.336,5.265
	c0,1.064,0.112,5.264,0.168,5.824c0.056,0.56,0.504,1.512,0.672,2.296c0.168,0.784,0.284,1.165,0.504,1.344
	c0.219,0.18,0.614-0.166,1.344-0.896c0.352-0.352,0.831-0.467,1.026-0.639c0.083-0.073,0.092-0.147,0.195-0.209l1.037-0.628
	c0,0,0.449-0.341,1.044-0.773c0.409-0.298,0.841-0.643,1.045-0.888c0.19-0.227,0.304-0.242,0.691-0.257
	c1.101-0.044,2.283,0.897,2.283,0.897c0.157,0.135,0.113,0.54,0.51,0.484c0.265-0.037,0.173-0.616,0.507-0.888
	c0.228-0.185,0.732-0.143,1.22-0.162c0.985-0.04,1.184,0.234,1.672,0.721c0.276,0.276,0.468,0.612,0.502,0.934
	c0.05,0.481-0.26,0.78-0.502,1.114c-0.274,0.38-0.497,0.773-0.698,0.917c-0.378,0.27-1.146,0.733-1.632,0.841
	c-0.156,0.035-0.69,0.092-1.302,0.237c-0.787,0.187-1.755,0.494-2.74,0.822c-0.633,0.211-1.243,0.579-1.746,0.779
	c-1.893,0.758-5.95,1.731-6.653,2.002c-0.703,0.27-2.975,0.865-2.975,0.865c-0.649,0.595,0.216,2.056,0.487,2.434
	c0.271,0.378,0.703,0.811,0.92,1.081c0.216,0.271,1.028,0.379,1.028,0.379s3.191-0.757,3.84-0.974
	c0.649-0.216,3.678-2.001,3.678-2.001c0.632-0.725,1.152-1.328,1.779-1.722c1.198-0.754,2.391-0.837,2.71-1.086
	c0.486-0.378,2.001-1.898,2.001-1.898s0.703-0.595,0.974-0.595c0.27,0,0.757,0.27,1.027,0.487c0.271,0.217,0.054,1.244-0.324,1.623
	c-0.379,0.379-2.081,1.325-2.081,1.325s-0.974,0.541-0.703,0.595c0.27,0.054,3.65,0.378,3.975,0.378c1.006,0,1.109,0.062,2.326-0.73
	c1.082-0.757,0.865-1.081,0.757-1.73c-0.108-0.649-1.406-2.975-1.839-3.354c-0.765-0.669-1.141-0.851-0.92-1.461
	c0,0,1.244-0.162,1.569-0.162c1.032,0,1.234-0.948,0.974-1.73c-0.467-1.403-1.792-1.144-0.904-2.316
	c0.109-0.143,0.122-0.108,0.294-0.168c0.238-0.083,0.652-0.302,1.043-0.869c0.595-0.866,3.245-4.327,3.516-4.543
	c0.27-0.217,1.19-1.19,1.244-1.461c0.054-0.271-0.271-1.298-0.811-1.785c-1.15-1.035-0.389-1.359-1.69-1.12
	c-0.416,0.076-0.563,0.152-0.927,0.373c-0.293,0.177-0.697,0.415-1.115,0.638c-0.811,0.433-1.998,0.831-2.326,1.028
	c-1.731,1.035-2.056-0.074-2.056-1.406c0-0.98,0.264-1.125-0.811-1.46l-0.971-0.131c-0.058-0.008-0.112-0.025-0.136-0.057
	c-0.026-0.035-0.046-0.132-0.063-0.209c-0.05-0.232-0.087-0.639-0.02-1.118c0.056-0.402,0.157-1.14,0.113-1.744
	c-0.039-0.532-0.221-0.96-0.221-0.96s-0.433-0.487-0.92-0.703c-0.487-0.217-1.082-0.704-1.515-0.974
	c-0.188-0.117-0.321-0.258-0.465-0.35c-0.086-0.055-0.264-0.111-0.341-0.157c-0.439-0.269-0.556-0.154-0.533,0.3
	c0.006,0.119,0.094,0.261,0.094,0.423c0,0.493,0.105,1.402-0.148,1.839c-0.108,0.185-0.209,0.815-0.392,1.271
	c-0.216,0.54-0.649,0.839-0.757,1.109c-0.108,0.271-0.595,0.704-1.028,0.866c-0.27,0.101-1.115,0.082-1.641,0.154
	c-0.218,0.03-0.455,0.065-0.503,0.16c-0.029,0.057,0.073,0.135,0.111,0.246l0.442,0.364c0.403,0.242,0.671,0.426,0.926,0.585
	c0.198,0.123,0.404,0.183,0.558,0.542c0.162,0.378-0.433,1.411-0.703,2.277c-0.27,0.865-1.814,2.649-1.814,2.649
	c0.585,0.161,1.044-0.71,1.416-1.115c0.588-0.64,0.843-0.665,1.276-0.827c0.433-0.162,1.502-0.761,1.935-1.139
	c0.433-0.379,0.937-0.433,0.937-0.433c1.077,0.261,0.74,1.353,0.74,1.353s-0.23,0.775-0.858,1.767
	c-0.628,0.994-1.34,3.032-1.773,3.248c-0.432,0.215-1.829-0.454-1.829-0.454s-0.984-0.361-1.02-0.176
	c-0.197,0.994,0.008,0.539,0.396,1.025c0.216,0.27,1.244,1.19,1.244,1.19c0.054,0.379-0.777,1.872-1.047,2.25
	c-0.189,0.265-0.958,1.148-1.531,1.599c-0.129,0.102-0.333,0.218-0.455,0.029c-0.192-0.295-0.395-0.512-0.423-0.707
	c-0.028-0.195-0.047-0.562-0.156-0.988c-0.066-0.254-0.157-0.701-0.282-0.974c-0.336-0.728-1.049-4.591-1.16-5.319
	c-0.077-0.5-0.059-1.868-0.199-2.67c-0.063-0.364-0.361-0.491-0.361-0.578c0-0.28-0.448-0.896-0.448-0.896l-0.28-0.336H241.112
	L241.112,12.842z M254.524,15.81l3.507,0.098c0.517,0.054,0.737,0.403,0.767,0.93c0.034,0.601-0.133,1.584-0.437,2.451
	c-0.175,0.498-0.256,1.05-0.632,1.396c-0.426,0.393-1.153,0.551-1.385,0.597c-0.112,0.022-1.261,1.116-1.583,0.855
	c-0.196-0.159-0.77-0.92-1.032-1.192c-0.277-0.206-1.105-0.762-1.451-1.088c-0.064-0.06-0.55-0.245-0.522-0.437
	c0.028-0.192,1.548-2.174,2.268-3.258C254.307,15.737,254.38,15.841,254.524,15.81L254.524,15.81z M236.289,18.516
	c0.459,0.404,1.826,1.82,2.05,1.978c0.257,0.181,0.935,0.034,0.96,0.576c0.009,0.195,0.03,0.616,0.052,1.104
	c0.039,0.872,0.081,1.961,0.066,2.374c-0.011,0.291,0.078,0.922,0.037,1.684c-0.04,0.747-0.2,1.617-0.37,2.249
	c-0.099,0.369-0.088,0.661-0.477,0.215c-0.058-0.066-0.116-0.157-0.167-0.279c-0.205-0.49-0.409-0.773-0.46-1.366
	c-0.051-0.593-0.395-1.264-0.574-1.857c-0.18-0.593-0.123-1.702-0.25-2.269c-0.128-0.567-0.359-0.877-0.565-1.496
	c-0.122-0.367-0.317-1.324-0.417-2.078c-0.051-0.386-0.078-0.739-0.057-0.878C236.136,18.342,236.238,18.47,236.289,18.516
	L236.289,18.516z"/>
<path class="st1" d="M102.014,32.896c0,0-1.308,0.51-2.061,2.073c-0.272,0.566-0.193,1.591-0.56,2.378
	c-0.424,0.906-1.093,1.557-1.593,2.881c-0.029,0.076-0.046,0.458-0.242,0.978c-0.102,0.272-0.416,0.47-0.516,0.829
	c-0.069,0.246,0.075,0.649,0.008,0.875c-0.109,0.367-0.376,0.561-0.427,0.871c-0.098,0.592,0.134,1.196,0.542,1.348
	c0.46,0.173,1.268,0.634,2.076,1.557c0.365,0.417,2.204,0.873,2.364,0.23c0.115-0.46,0.288-1.038,0.231-2.075
	c-0.058-1.038-0.749-3.748-0.577-5.766c0.173-2.018,0.461-3.632,0.461-4.44C101.721,33.828,102.014,32.896,102.014,32.896
	L102.014,32.896z M121.183,39.554c0.232-0.083,0.325,0.28,0.729,0.631c0.259,0.226,0.623,0.379,0.806,0.574
	c0.208,0.223,0.217,0.645,0.592,1.147c1.325,1.779,2.154,2.728,2.557,4.446c0,0,0.227,1.34-0.403,2.148
	c-0.63,0.809-0.906,0.784-1.158,0.91c-0.252,0.127-2.569-0.05-2.569-0.05s-0.277-1.138-0.277-1.744c0-0.606-0.38-3.935-0.429-4.289
	c-0.02-0.143-0.388-0.763-0.425-1.378c-0.045-0.769-0.036-1.691,0.023-1.99l0.201-0.278L121.183,39.554L121.183,39.554z
	 M109.617,21.165c0.486-0.226,0.813-0.515,1.191-0.785c0.377-0.27,0.679-0.564,1.026-0.974c0.189-0.224,0.333-0.647,0.576-0.931
	c1.108-1.294,2.883-2.944,4.728-5.042c0.32-0.364,0.456-0.783,0.721-1.191c0.234-0.361,0.601-0.713,0.84-1.011
	c1.047-1.303,1.81-1.697,2.556-2.58c0.979-1.161,1.989-2.366,2.253-2.63c0.564-0.564,1.082-0.973,1.38-1.42
	c0.298-0.448,0.746-0.634,0.969-0.597c0.224,0.037,0.447,0.634,0.447,0.634s0.932,1.006,1.119,1.491
	c0.186,0.485,0,1.045,0.037,1.455c0.02,0.224,0.182,1.036,0.626,1.533c0.368,0.412,0.993,0.519,1.313,0.705
	c0,0,1.042,0.059,0.673,0.694c-0.368,0.635-0.604,0.678-0.808,0.721c-0.366,0.077-0.604,0.174-0.85,0.19
	c-0.191,0.013-0.514-0.019-0.78,0.026c-1.14,0.191-4.132,0.555-6.663,2.189c-0.582,0.376-1.212,0.847-1.856,1.293
	c-0.533,0.37-1.082,0.704-1.58,1.128c-0.657,0.56-1.422,0.944-1.983,1.552c-0.237,0.257-0.419,0.575-0.656,0.773
	c-0.304,0.254-0.663,0.376-0.945,0.619c-0.343,0.296-0.622,0.56-0.961,0.805c-0.388,0.281-0.881,0.541-1.321,0.792
	c-0.402,0.23-0.823,0.42-1.203,0.649c-0.173,0.104-0.311,0.242-0.482,0.349c-0.386,0.19-0.516,0.326-0.334,0.769
	c0.093,0.229,0.102,0.273,0.348,0.317c0.463,0.085,2.06-0.336,3.995-1.388c1.934-1.051,3.575-1.934,3.575-1.934
	s1.626-1.051,2.046-1.387c0.42-0.337,0.546-0.085,0.546-0.085s0.477,0.421,0.351,0.631c-0.126,0.21-0.168,0.463-0.168,0.463
	s0.378,0.757,0.925,1.009c0.32,0.147,0.811-0.291,1.178-0.505c0.505-0.294,2.018-1.598,2.817-2.06
	c0.462-0.267,1.216-0.595,2.03-0.775c0.594-0.131,1.229-0.13,1.761-0.236c1.261-0.252,2.096-0.63,2.937-0.84
	c0.744-0.185,1.706-0.53,2.019,0.252c0,0,0.252,0.757,0.084,1.009c-0.169,0.252-0.505,0.799-0.505,1.262
	c0,0.463-0.925,2.649-1.051,3.743c-0.126,1.093-1.066,10.519-0.892,12.571c0.174,2.051,0.044,3.491,0,4.015
	c-0.043,0.524,0.131,5.105,0.131,5.323c0,0.219,0.262,8.509,0.218,9.426c-0.044,0.916,0.017,3.273-0.027,3.621
	c-0.027,0.218-0.003,2.064-0.086,2.451c-0.096,0.448-0.512,0.709-0.86,0.791c-0.928,0.22-1.672,0.458-1.873,0.604
	c-0.141,0.102-1.204,0.234-1.666,0.224c-0.291-0.007-0.591-0.162-0.748-0.398c-0.199-0.298-0.398-0.638-0.513-1.11
	c-0.065-0.266-0.275-0.648-0.486-1.125c-0.271-0.612-0.598-1.382-1.188-2.267c-1.311-1.966-1.857-2.805-2.034-3.077
	c-0.086-0.132-0.087-0.163-0.092-0.332c-0.012-0.37-0.093-1.111,0.101-1.143c0.111-0.018,0.821-0.021,1.556-0.017
	c0.573,0.003,1.15-0.05,1.486,0.036c0.111,0.028,0.429,0.372,0.857,0.766c0.391,0.359,0.774,0.587,1.135,0.566
	c0.297-0.017,0.688,0.288,1.146,0.057c0.444-0.223,0.234-0.627,0.234-0.94c0-0.22,0.53-6.757,0.486-8.524
	c-0.029-1.173-0.206-4.64-0.242-7.367c-0.019-1.379-0.002-2.57,0.087-3.178c0.265-1.811,0.376-5.135,0.509-5.841
	c0.132-0.707,0.442-4.77,0.707-5.741c0.265-0.971,0.408-1.623,0.496-1.887c0.195-0.586,0.014-1.107-0.336-0.89
	c-0.437,0.269-0.924,0.305-1.379,0.235c-0.712-0.11-1.161-0.627-1.492-0.67c-0.662-0.088-2.854,0.828-3.163,1.093
	c-0.309,0.265-1.546,1.855-2.12,2.032c-0.574,0.177-1.679,0.574-2.164,0.398c0,0-0.221-0.31-0.442-0.663
	c-0.221-0.353-0.663-0.751-1.237-0.751c-0.574,0-1.81,1.061-2.12,1.414c-0.309,0.353-0.441,0.75-0.441,0.75s1.237,0.177,1.722,0.177
	c2.419,0,2.166-0.034,2.738,2.208c0,0,1.413-0.044,1.899-0.221c0.486-0.177,0.574,0.53,0.574,0.53s-0.044,0.574-0.22,0.839
	c-0.177,0.265-1.502,1.899-2.12,2.429c-0.618,0.53-0.795,1.149-0.795,1.546s0.132,0.707,0.662,0.751
	c0.53,0.044,1.237-0.309,1.59,1.192c0,0,0.265,0.795,0.044,0.972c-0.221,0.177-0.971,0.839-1.237,1.016
	c-0.265,0.177-2.385,2.827-3.136,4.726c0,0-0.618,0.574,0,3.268c0.618,2.694,0.662,3.49,0.574,3.842
	c-0.089,0.353,0.397,2.164-2.209,3.931c0,0-1.101,0.927-2.16-0.707c0,0-0.665-0.884-0.62-2.341c0.028-0.911,0.04-1.374,0.018-1.592
	c-0.023-0.227-0.06-0.183-0.294-0.164c-0.299,0.024-0.797,0.1-0.918,0.343c-0.177,0.353-0.353,1.149-0.486,1.59
	c-0.132,0.442-0.972,1.59-1.458,1.811c-0.303,0.138-0.553,0.139-0.81-0.063c-0.154-0.121-0.325-0.315-0.474-0.597
	c-0.149-0.281-0.416-0.558-0.503-0.818c-0.145-0.434-0.012-0.825,0.374-1.129c0,0,0.575-0.707,1.325-1.413
	c0.751-0.707,1.325-1.193,1.546-1.458c0.221-0.265,0.619-0.619,0.707-0.972c0.088-0.353,0.044-2.341,0.044-2.739
	c0,0-0.221-0.441-0.574-0.397c-0.353,0.044-0.707,0.133-0.795,0.662c-0.089,0.53-0.177,0.928-0.486,0.928
	c-0.309,0-1.678-0.354-1.723-1.193c-0.044-0.839,0.045-1.722,0.663-2.296c0,0,1.237-0.574,2.164-1.414
	c0.928-0.839,1.369-1.501,1.413-2.076c0.044-0.574,0.177-0.662,0.177-0.662s-1.06,0.354-1.678,0.795
	c-0.619,0.441-1.502,1.325-1.988,1.501c-0.486,0.177-0.839,0.441-1.104,0.309c-0.265-0.133-0.574-0.133-1.369-1.148
	c-0.795-1.016-1.59-1.104-1.988-1.943c-0.398-0.839,0.088-1.016,0.486-1.325c0.397-0.309,2.032-0.353,2.694-0.707
	c0.663-0.353,2.209-0.972,3.18-1.546c0.972-0.574,2.606-1.59,3.048-1.855c0.442-0.265,0.574-0.619,0.574-0.619l0.177-1.943
	c0,0-0.309-0.265-1.193-0.309c-0.883-0.044-0.839-0.442-3.533,0.441c0,0-1.281,0.442-2.12,0.442c-0.839,0-0.795-0.22-1.237-0.22
	c-0.441,0-1.149-0.09-1.59-0.178c-0.442-0.089-1.995-1.609-2.058-1.776c-0.063-0.167,1.346-0.126,2.145-0.295
	c0.799-0.168,1.642-0.333,1.977-0.505c0.115-0.059,0.246-0.128,0.383-0.243c0.177-0.147,0.308-0.273,0.483-0.348
	c0.154-0.066,0.226-0.082,0.399-0.078C109.191,21.267,109.28,21.321,109.617,21.165L109.617,21.165z M100.708,15.355
	c0.654-0.226,1.127-0.057,2.077-0.407c0.57-0.211,0.925-0.451,1.5-0.706c0.673-0.298,1.369-0.48,1.811-0.903
	c0,0,0.257-0.243,0.668-0.504c0.319-0.203,0.779-0.355,0.985-0.807c0.136-0.298,0.016-0.675-0.107-1.243
	c-0.008-0.037-0.017-0.076-0.026-0.113c-0.042-0.169-0.181-0.322-0.165-0.491c0.069-0.749-0.36-1.671-0.128-2.3
	c0.16-0.433,0.562-0.612,0.991-0.676c0.258-0.039,0.471-0.212,0.8,0.119c0.247,0.248,0.918,1.368,1.207,1.616
	c0.29,0.249,0.9,0.541,1.148,0.707c0.248,0.166,1.199,0.925,1.093,1.659c-0.03,0.206,0.037,0.737,0.109,0.959
	c0.073,0.223,0.296,0.105,0.357,0.209c0.123,0.206,0.405,0.649,0.529,0.981c0.124,0.332,0.629,0.724,0.092,1.221
	c-0.369,0.341-0.846,0.102-1.061,0.4c-0.097,0.135-0.088,0.374-0.294,0.711c-0.299,0.489-0.752,1.378-1.219,1.555
	c-0.563,0.215-1.148-0.333-1.509-0.31c-0.661,0.041-1.281,0.664-1.984,1.161c-0.703,0.498-2.355,1.452-2.48,1.742
	c-0.124,0.291-0.662,0.622-0.992,0.788c-0.331,0.166-0.785,0.013-1.157-0.4c-0.267-0.298-0.623-0.94-0.966-1.446
	c-0.134-0.198-0.215-0.446-0.365-0.54c-0.537-0.332-0.92-1.031-1.127-1.279c-0.136-0.163-0.611-0.409-0.748-0.668
	C99.56,16.032,100.249,15.513,100.708,15.355L100.708,15.355z"/>
<path class="st1" d="M216.342,37.524c0,0,1.148,0.033,1.522,0.306c0.25,0.183,1.918,1.932,2.21,2.224
	c0.303,0.303,1.225,0.237,2.025,0.922c0.563,0.482,0.914,1.309,1.41,1.999c0.386,0.538,0.953,0.978,1.18,1.211
	c0.873,0.893,2.379,3.744,1.749,4.437c-0.236,0.259-1.008,0.172-1.408,0.44c-0.668,0.447-1.649,1.004-2.16,1.279
	c-0.818,0.44-1.096,1.244-1.852,1.37c-0.756,0.126-1.134,0-1.324-0.756c-0.189-0.756-0.315-4.412-0.819-5.987
	C217.802,41.61,217.047,38.9,216.342,37.524L216.342,37.524z M187.997,34.116c0.566,0.046,1.387,0.439,2.092,0.263
	c0.704-0.176,6.498-1.574,8.846-2.747c2.349-1.174,3.261-1.44,3.789-1.792c0.528-0.352,1.937-0.677,2.29-2.229
	c0.352-1.552,0.998-4.881,1.057-6.29c0.059-1.409-0.059-3.405-0.118-4.169c-0.059-0.763-0.411-2.231-1.232-3.111
	c0,0-0.588-1.057-0.294-1.703c0.294-0.646,1.175-1.116,1.292-1.468c0.063-0.189,0.236-0.351,0.446-0.416
	c0.129-0.039,0.333-0.012,0.392-0.004c0.126,0.017,0.244,0.126,0.284,0.165c0.223,0.215,1.256,1.216,2.048,1.797
	c0.88,0.645,3.229,2.392,3.582,2.862c0.352,0.469,0.881,1.291,0.704,2.29c0,0-0.297,0.822-0.414,1.409
	c-0.117,0.587,0.418,1.351-0.052,1.761c-0.47,0.411-1.354,1.644-1.471,2.349c-0.117,0.705-0.117,1.468-0.059,1.879
	c0.059,0.411,0.176,0.939,0.176,0.939s0.353,0,0.822-0.293c0.47-0.294,1.527-0.646,1.996-0.998c0.234-0.175,1.134-0.478,1.82-1.002
	c0.412-0.315,0.566-0.828,0.96-1.113c0.268-0.194,0.611-0.254,0.802-0.409c0.261-0.212,0.54-0.332,0.696-0.472
	c0.201-0.18,0.252-0.367,0.355-0.547c0.174-0.301,0.037-0.572-0.12-0.817c-0.087-0.137-0.221-0.306-0.381-0.448
	c-0.143-0.126-0.276-0.349-0.464-0.505c-0.072-0.06-0.1-0.096-0.096-0.166l0.007-0.136c0.013-0.09,0.099-0.135,0.19-0.112
	c0.247,0.063,1.02,0.265,1.372,0.525c0.417,0.308,1.614,0.961,1.927,1.348c0.314,0.386,0.168,0.803-0.125,0.978
	c-0.207,0.124-1.055,0.576-1.855,1.078c-0.331,0.208-0.745,0.426-0.916,0.615c-0.311,0.342-0.855,0.74-1.249,1.381
	c-0.347,0.566-0.46,1.256-0.955,1.641c-1.056,0.822-2.848,1.565-3.318,2.036c-0.47,0.469-1.409,1.35-1.82,2.113
	c-0.411,0.764-0.47,1.585-0.822,1.82c-0.352,0.235-0.998,1.409-1.233,1.761c-0.235,0.352-0.411,1.997-0.763,2.994
	c-0.352,0.999-0.646,2.936-0.646,3.405c0,0.47-0.301,1.403-0.535,2.166c-0.235,0.764-0.822,1.996-2.407,2.76
	c0,0-1.257,0.525-1.903,1.053c-0.646,0.528-1.319,1.008-1.848,1.419c-0.528,0.411-1.527,1.233-4.521,1.585
	c-2.994,0.352-3.64,0.293-5.226,0.587c-1.387,0.257-3.898,0.648-4.504,0.742c-0.235,0.036-0.231-0.591,0.113-0.661
	c0.263-0.054,0.773-0.173,1.338-0.375c0.822-0.293,2.818-1.761,4.521-2.759c1.702-0.999,3.582-2.114,4.58-3.171
	c0.998-1.057,3.816-3.053,4.697-4.11c0.881-1.056,1.702-3.758,1.702-4.345c0,0-0.352-0.763-0.998-0.411
	c-0.646,0.352-3.17,1.996-4.051,2.407c-0.881,0.411-1.527,0.529-2.995,1.527c-1.468,0.997-2.349,1.937-3.464,1.585
	c-1.115-0.352-1.879-1.057-2.994-1.996c-0.612-0.516-1.685-1.495-2.188-2.397c-0.158-0.282-0.037-0.553,0.136-0.906
	C187.164,34.926,187.432,34.07,187.997,34.116L187.997,34.116z"/>
<g>
</g>
<g>
</g>
<g>
</g>
<g>
</g>
<g>
</g>
<g>
</g>
</svg>
